<mxfile host="app.diagrams.net" modified="2024-06-22T00:58:12.507Z" agent="Mozilla/5.0 (Windows NT 10.0; Win64; x64) AppleWebKit/537.36 (KHTML, like Gecko) Chrome/122.0.0.0 Safari/537.36" etag="731_SsMl5hgKu3_1PojK" version="24.6.0" type="device">
  <diagram name="第 1 页" id="_LfP5lzwbiOy1OXJ7P7T">
    <mxGraphModel dx="2806" dy="565" grid="1" gridSize="10" guides="1" tooltips="1" connect="1" arrows="1" fold="1" page="1" pageScale="1" pageWidth="827" pageHeight="1169" math="0" shadow="0">
      <root>
        <mxCell id="0" />
        <mxCell id="1" parent="0" />
        <mxCell id="Tflg92C3cAOVluI08kxh-41" value="" style="group" parent="1" vertex="1" connectable="0">
          <mxGeometry x="1021" y="570" width="440" height="300" as="geometry" />
        </mxCell>
        <mxCell id="Tflg92C3cAOVluI08kxh-18" style="rounded=0;orthogonalLoop=1;jettySize=auto;html=1;entryX=0;entryY=0.5;entryDx=0;entryDy=0;fontFamily=Helvetica;fontSize=12;fontColor=default;movable=1;resizable=1;rotatable=1;deletable=1;editable=1;locked=0;connectable=1;" parent="Tflg92C3cAOVluI08kxh-41" source="Tflg92C3cAOVluI08kxh-2" target="Tflg92C3cAOVluI08kxh-15" edge="1">
          <mxGeometry relative="1" as="geometry" />
        </mxCell>
        <mxCell id="Tflg92C3cAOVluI08kxh-22" style="edgeStyle=none;shape=connector;rounded=0;orthogonalLoop=1;jettySize=auto;html=1;entryX=0;entryY=0.5;entryDx=0;entryDy=0;strokeColor=default;align=center;verticalAlign=middle;fontFamily=Helvetica;fontSize=12;fontColor=default;labelBackgroundColor=default;endArrow=classic;movable=1;resizable=1;rotatable=1;deletable=1;editable=1;locked=0;connectable=1;" parent="Tflg92C3cAOVluI08kxh-41" source="Tflg92C3cAOVluI08kxh-2" target="Tflg92C3cAOVluI08kxh-21" edge="1">
          <mxGeometry relative="1" as="geometry" />
        </mxCell>
        <mxCell id="Tflg92C3cAOVluI08kxh-23" style="edgeStyle=none;shape=connector;rounded=0;orthogonalLoop=1;jettySize=auto;html=1;strokeColor=default;align=center;verticalAlign=middle;fontFamily=Helvetica;fontSize=12;fontColor=default;labelBackgroundColor=default;endArrow=classic;movable=1;resizable=1;rotatable=1;deletable=1;editable=1;locked=0;connectable=1;" parent="Tflg92C3cAOVluI08kxh-41" source="Tflg92C3cAOVluI08kxh-2" target="Tflg92C3cAOVluI08kxh-24" edge="1">
          <mxGeometry relative="1" as="geometry">
            <mxPoint x="190" y="240" as="targetPoint" />
          </mxGeometry>
        </mxCell>
        <mxCell id="Tflg92C3cAOVluI08kxh-25" style="edgeStyle=none;shape=connector;rounded=0;orthogonalLoop=1;jettySize=auto;html=1;strokeColor=default;align=center;verticalAlign=middle;fontFamily=Helvetica;fontSize=12;fontColor=default;labelBackgroundColor=default;endArrow=classic;movable=1;resizable=1;rotatable=1;deletable=1;editable=1;locked=0;connectable=1;" parent="Tflg92C3cAOVluI08kxh-41" source="Tflg92C3cAOVluI08kxh-2" target="Tflg92C3cAOVluI08kxh-26" edge="1">
          <mxGeometry relative="1" as="geometry">
            <mxPoint x="130" y="230" as="targetPoint" />
          </mxGeometry>
        </mxCell>
        <mxCell id="Tflg92C3cAOVluI08kxh-29" style="edgeStyle=none;shape=connector;rounded=0;orthogonalLoop=1;jettySize=auto;html=1;strokeColor=default;align=center;verticalAlign=middle;fontFamily=Helvetica;fontSize=12;fontColor=default;labelBackgroundColor=default;endArrow=classic;movable=1;resizable=1;rotatable=1;deletable=1;editable=1;locked=0;connectable=1;" parent="Tflg92C3cAOVluI08kxh-41" source="Tflg92C3cAOVluI08kxh-2" target="Tflg92C3cAOVluI08kxh-30" edge="1">
          <mxGeometry relative="1" as="geometry">
            <mxPoint x="150" y="60" as="targetPoint" />
          </mxGeometry>
        </mxCell>
        <mxCell id="Tflg92C3cAOVluI08kxh-33" style="edgeStyle=none;shape=connector;rounded=0;orthogonalLoop=1;jettySize=auto;html=1;strokeColor=default;align=center;verticalAlign=middle;fontFamily=Helvetica;fontSize=12;fontColor=default;labelBackgroundColor=default;endArrow=classic;movable=1;resizable=1;rotatable=1;deletable=1;editable=1;locked=0;connectable=1;" parent="Tflg92C3cAOVluI08kxh-41" source="Tflg92C3cAOVluI08kxh-2" target="Tflg92C3cAOVluI08kxh-34" edge="1">
          <mxGeometry relative="1" as="geometry">
            <mxPoint x="240" y="50" as="targetPoint" />
          </mxGeometry>
        </mxCell>
        <mxCell id="Tflg92C3cAOVluI08kxh-35" style="edgeStyle=none;shape=connector;rounded=0;orthogonalLoop=1;jettySize=auto;html=1;strokeColor=default;align=center;verticalAlign=middle;fontFamily=Helvetica;fontSize=12;fontColor=default;labelBackgroundColor=default;endArrow=classic;movable=1;resizable=1;rotatable=1;deletable=1;editable=1;locked=0;connectable=1;" parent="Tflg92C3cAOVluI08kxh-41" source="Tflg92C3cAOVluI08kxh-2" target="Tflg92C3cAOVluI08kxh-36" edge="1">
          <mxGeometry relative="1" as="geometry">
            <mxPoint x="360" y="100" as="targetPoint" />
          </mxGeometry>
        </mxCell>
        <mxCell id="Tflg92C3cAOVluI08kxh-37" style="edgeStyle=none;shape=connector;rounded=0;orthogonalLoop=1;jettySize=auto;html=1;strokeColor=default;align=center;verticalAlign=middle;fontFamily=Helvetica;fontSize=12;fontColor=default;labelBackgroundColor=default;endArrow=classic;movable=1;resizable=1;rotatable=1;deletable=1;editable=1;locked=0;connectable=1;" parent="Tflg92C3cAOVluI08kxh-41" source="Tflg92C3cAOVluI08kxh-2" target="Tflg92C3cAOVluI08kxh-38" edge="1">
          <mxGeometry relative="1" as="geometry">
            <mxPoint x="380" y="130" as="targetPoint" />
          </mxGeometry>
        </mxCell>
        <mxCell id="Tflg92C3cAOVluI08kxh-2" value="&lt;font style=&quot;font-size: 35px;&quot;&gt;student&lt;/font&gt;" style="rounded=0;whiteSpace=wrap;html=1;movable=1;resizable=1;rotatable=1;deletable=1;editable=1;locked=0;connectable=1;" parent="Tflg92C3cAOVluI08kxh-41" vertex="1">
          <mxGeometry x="120" y="120" width="120" height="60" as="geometry" />
        </mxCell>
        <mxCell id="Tflg92C3cAOVluI08kxh-15" value="ID" style="ellipse;whiteSpace=wrap;html=1;rounded=0;movable=1;resizable=1;rotatable=1;deletable=1;editable=1;locked=0;connectable=1;" parent="Tflg92C3cAOVluI08kxh-41" vertex="1">
          <mxGeometry x="310" y="25" width="40" height="50" as="geometry" />
        </mxCell>
        <mxCell id="Tflg92C3cAOVluI08kxh-21" value="name" style="ellipse;whiteSpace=wrap;html=1;aspect=fixed;rounded=0;strokeColor=default;align=center;verticalAlign=middle;fontFamily=Helvetica;fontSize=12;fontColor=default;labelBackgroundColor=default;fillColor=default;movable=1;resizable=1;rotatable=1;deletable=1;editable=1;locked=0;connectable=1;" parent="Tflg92C3cAOVluI08kxh-41" vertex="1">
          <mxGeometry x="300" y="180" width="80" height="80" as="geometry" />
        </mxCell>
        <mxCell id="Tflg92C3cAOVluI08kxh-24" value="nation" style="ellipse;whiteSpace=wrap;html=1;aspect=fixed;rounded=0;strokeColor=default;align=center;verticalAlign=middle;fontFamily=Helvetica;fontSize=12;fontColor=default;labelBackgroundColor=default;fillColor=default;movable=1;resizable=1;rotatable=1;deletable=1;editable=1;locked=0;connectable=1;" parent="Tflg92C3cAOVluI08kxh-41" vertex="1">
          <mxGeometry x="170" y="230" width="70" height="70" as="geometry" />
        </mxCell>
        <mxCell id="Tflg92C3cAOVluI08kxh-26" value="birthplace" style="ellipse;whiteSpace=wrap;html=1;aspect=fixed;rounded=0;strokeColor=default;align=center;verticalAlign=middle;fontFamily=Helvetica;fontSize=12;fontColor=default;labelBackgroundColor=default;fillColor=default;movable=1;resizable=1;rotatable=1;deletable=1;editable=1;locked=0;connectable=1;" parent="Tflg92C3cAOVluI08kxh-41" vertex="1">
          <mxGeometry x="70" y="200" width="70" height="70" as="geometry" />
        </mxCell>
        <mxCell id="Tflg92C3cAOVluI08kxh-27" value="gender" style="ellipse;whiteSpace=wrap;html=1;aspect=fixed;rounded=0;strokeColor=default;align=center;verticalAlign=middle;fontFamily=Helvetica;fontSize=12;fontColor=default;labelBackgroundColor=default;fillColor=default;movable=1;resizable=1;rotatable=1;deletable=1;editable=1;locked=0;connectable=1;" parent="Tflg92C3cAOVluI08kxh-41" vertex="1">
          <mxGeometry y="90" width="80" height="80" as="geometry" />
        </mxCell>
        <mxCell id="Tflg92C3cAOVluI08kxh-28" style="edgeStyle=none;shape=connector;rounded=0;orthogonalLoop=1;jettySize=auto;html=1;entryX=0.949;entryY=0.674;entryDx=0;entryDy=0;entryPerimeter=0;strokeColor=default;align=center;verticalAlign=middle;fontFamily=Helvetica;fontSize=12;fontColor=default;labelBackgroundColor=default;endArrow=classic;movable=1;resizable=1;rotatable=1;deletable=1;editable=1;locked=0;connectable=1;" parent="Tflg92C3cAOVluI08kxh-41" source="Tflg92C3cAOVluI08kxh-2" target="Tflg92C3cAOVluI08kxh-27" edge="1">
          <mxGeometry relative="1" as="geometry" />
        </mxCell>
        <mxCell id="Tflg92C3cAOVluI08kxh-30" value="password" style="ellipse;whiteSpace=wrap;html=1;aspect=fixed;rounded=0;strokeColor=default;align=center;verticalAlign=middle;fontFamily=Helvetica;fontSize=12;fontColor=default;labelBackgroundColor=default;fillColor=default;movable=1;resizable=1;rotatable=1;deletable=1;editable=1;locked=0;connectable=1;" parent="Tflg92C3cAOVluI08kxh-41" vertex="1">
          <mxGeometry x="20" width="80" height="80" as="geometry" />
        </mxCell>
        <mxCell id="Tflg92C3cAOVluI08kxh-34" value="major" style="ellipse;whiteSpace=wrap;html=1;aspect=fixed;rounded=0;strokeColor=default;align=center;verticalAlign=middle;fontFamily=Helvetica;fontSize=12;fontColor=default;labelBackgroundColor=default;fillColor=default;movable=1;resizable=1;rotatable=1;deletable=1;editable=1;locked=0;connectable=1;" parent="Tflg92C3cAOVluI08kxh-41" vertex="1">
          <mxGeometry x="200" y="10" width="80" height="80" as="geometry" />
        </mxCell>
        <mxCell id="Tflg92C3cAOVluI08kxh-36" value="class" style="ellipse;whiteSpace=wrap;html=1;aspect=fixed;rounded=0;strokeColor=default;align=center;verticalAlign=middle;fontFamily=Helvetica;fontSize=12;fontColor=default;labelBackgroundColor=default;fillColor=default;movable=1;resizable=1;rotatable=1;deletable=1;editable=1;locked=0;connectable=1;" parent="Tflg92C3cAOVluI08kxh-41" vertex="1">
          <mxGeometry x="360" y="10" width="80" height="80" as="geometry" />
        </mxCell>
        <mxCell id="Tflg92C3cAOVluI08kxh-38" value="account" style="ellipse;whiteSpace=wrap;html=1;aspect=fixed;rounded=0;strokeColor=default;align=center;verticalAlign=middle;fontFamily=Helvetica;fontSize=12;fontColor=default;labelBackgroundColor=default;fillColor=default;movable=1;resizable=1;rotatable=1;deletable=1;editable=1;locked=0;connectable=1;" parent="Tflg92C3cAOVluI08kxh-41" vertex="1">
          <mxGeometry x="340" y="90" width="80" height="80" as="geometry" />
        </mxCell>
        <mxCell id="Tflg92C3cAOVluI08kxh-50" value="" style="group" parent="1" vertex="1" connectable="0">
          <mxGeometry x="580" y="405" width="230" height="280" as="geometry" />
        </mxCell>
        <mxCell id="Tflg92C3cAOVluI08kxh-42" style="edgeStyle=none;shape=connector;rounded=0;orthogonalLoop=1;jettySize=auto;html=1;strokeColor=default;align=center;verticalAlign=middle;fontFamily=Helvetica;fontSize=12;fontColor=default;labelBackgroundColor=default;endArrow=classic;" parent="Tflg92C3cAOVluI08kxh-50" source="Tflg92C3cAOVluI08kxh-13" target="Tflg92C3cAOVluI08kxh-43" edge="1">
          <mxGeometry relative="1" as="geometry">
            <mxPoint x="190" y="130" as="targetPoint" />
          </mxGeometry>
        </mxCell>
        <mxCell id="Tflg92C3cAOVluI08kxh-44" style="edgeStyle=none;shape=connector;rounded=0;orthogonalLoop=1;jettySize=auto;html=1;strokeColor=default;align=center;verticalAlign=middle;fontFamily=Helvetica;fontSize=12;fontColor=default;labelBackgroundColor=default;endArrow=classic;" parent="Tflg92C3cAOVluI08kxh-50" source="Tflg92C3cAOVluI08kxh-13" target="Tflg92C3cAOVluI08kxh-45" edge="1">
          <mxGeometry relative="1" as="geometry">
            <mxPoint x="60" y="40" as="targetPoint" />
          </mxGeometry>
        </mxCell>
        <mxCell id="Tflg92C3cAOVluI08kxh-46" style="edgeStyle=none;shape=connector;rounded=0;orthogonalLoop=1;jettySize=auto;html=1;strokeColor=default;align=center;verticalAlign=middle;fontFamily=Helvetica;fontSize=12;fontColor=default;labelBackgroundColor=default;endArrow=classic;" parent="Tflg92C3cAOVluI08kxh-50" source="Tflg92C3cAOVluI08kxh-13" target="Tflg92C3cAOVluI08kxh-47" edge="1">
          <mxGeometry relative="1" as="geometry">
            <mxPoint x="60" y="240" as="targetPoint" />
          </mxGeometry>
        </mxCell>
        <mxCell id="Tflg92C3cAOVluI08kxh-13" value="&lt;font style=&quot;font-size: 35px;&quot;&gt;room&lt;/font&gt;" style="rounded=0;whiteSpace=wrap;html=1;" parent="Tflg92C3cAOVluI08kxh-50" vertex="1">
          <mxGeometry x="10" y="110" width="110" height="60" as="geometry" />
        </mxCell>
        <mxCell id="Tflg92C3cAOVluI08kxh-43" value="ID" style="ellipse;whiteSpace=wrap;html=1;aspect=fixed;rounded=0;strokeColor=default;align=center;verticalAlign=middle;fontFamily=Helvetica;fontSize=12;fontColor=default;labelBackgroundColor=default;fillColor=default;" parent="Tflg92C3cAOVluI08kxh-50" vertex="1">
          <mxGeometry x="150" y="90" width="80" height="80" as="geometry" />
        </mxCell>
        <mxCell id="Tflg92C3cAOVluI08kxh-45" value="building" style="ellipse;whiteSpace=wrap;html=1;aspect=fixed;rounded=0;strokeColor=default;align=center;verticalAlign=middle;fontFamily=Helvetica;fontSize=12;fontColor=default;labelBackgroundColor=default;fillColor=default;" parent="Tflg92C3cAOVluI08kxh-50" vertex="1">
          <mxGeometry x="20" width="80" height="80" as="geometry" />
        </mxCell>
        <mxCell id="Tflg92C3cAOVluI08kxh-47" value="area" style="ellipse;whiteSpace=wrap;html=1;aspect=fixed;rounded=0;strokeColor=default;align=center;verticalAlign=middle;fontFamily=Helvetica;fontSize=12;fontColor=default;labelBackgroundColor=default;fillColor=default;" parent="Tflg92C3cAOVluI08kxh-50" vertex="1">
          <mxGeometry x="20" y="200" width="80" height="80" as="geometry" />
        </mxCell>
        <mxCell id="QIQ5kJItUbip3SlNVDkh-23" value="" style="group" vertex="1" connectable="0" parent="1">
          <mxGeometry x="1170" y="1110" width="380" height="280" as="geometry" />
        </mxCell>
        <mxCell id="QIQ5kJItUbip3SlNVDkh-11" style="edgeStyle=none;shape=connector;rounded=0;orthogonalLoop=1;jettySize=auto;html=1;strokeColor=default;align=center;verticalAlign=middle;fontFamily=Helvetica;fontSize=11;fontColor=default;labelBackgroundColor=default;endArrow=classic;" edge="1" parent="QIQ5kJItUbip3SlNVDkh-23" source="Tflg92C3cAOVluI08kxh-4" target="QIQ5kJItUbip3SlNVDkh-12">
          <mxGeometry relative="1" as="geometry">
            <mxPoint x="340" y="150" as="targetPoint" />
          </mxGeometry>
        </mxCell>
        <mxCell id="QIQ5kJItUbip3SlNVDkh-13" style="edgeStyle=none;shape=connector;rounded=0;orthogonalLoop=1;jettySize=auto;html=1;strokeColor=default;align=center;verticalAlign=middle;fontFamily=Helvetica;fontSize=11;fontColor=default;labelBackgroundColor=default;endArrow=classic;" edge="1" parent="QIQ5kJItUbip3SlNVDkh-23" source="Tflg92C3cAOVluI08kxh-4" target="QIQ5kJItUbip3SlNVDkh-14">
          <mxGeometry relative="1" as="geometry">
            <mxPoint x="330" y="240" as="targetPoint" />
          </mxGeometry>
        </mxCell>
        <mxCell id="QIQ5kJItUbip3SlNVDkh-15" style="edgeStyle=none;shape=connector;rounded=0;orthogonalLoop=1;jettySize=auto;html=1;strokeColor=default;align=center;verticalAlign=middle;fontFamily=Helvetica;fontSize=11;fontColor=default;labelBackgroundColor=default;endArrow=classic;" edge="1" parent="QIQ5kJItUbip3SlNVDkh-23" source="Tflg92C3cAOVluI08kxh-4" target="QIQ5kJItUbip3SlNVDkh-16">
          <mxGeometry relative="1" as="geometry">
            <mxPoint x="260" y="60" as="targetPoint" />
          </mxGeometry>
        </mxCell>
        <mxCell id="QIQ5kJItUbip3SlNVDkh-17" style="edgeStyle=none;shape=connector;rounded=0;orthogonalLoop=1;jettySize=auto;html=1;strokeColor=default;align=center;verticalAlign=middle;fontFamily=Helvetica;fontSize=11;fontColor=default;labelBackgroundColor=default;endArrow=classic;" edge="1" parent="QIQ5kJItUbip3SlNVDkh-23" source="Tflg92C3cAOVluI08kxh-4" target="QIQ5kJItUbip3SlNVDkh-18">
          <mxGeometry relative="1" as="geometry">
            <mxPoint x="140" y="40" as="targetPoint" />
          </mxGeometry>
        </mxCell>
        <mxCell id="QIQ5kJItUbip3SlNVDkh-19" style="edgeStyle=none;shape=connector;rounded=0;orthogonalLoop=1;jettySize=auto;html=1;strokeColor=default;align=center;verticalAlign=middle;fontFamily=Helvetica;fontSize=11;fontColor=default;labelBackgroundColor=default;endArrow=classic;" edge="1" parent="QIQ5kJItUbip3SlNVDkh-23" source="Tflg92C3cAOVluI08kxh-4" target="QIQ5kJItUbip3SlNVDkh-20">
          <mxGeometry relative="1" as="geometry">
            <mxPoint x="40" y="80" as="targetPoint" />
          </mxGeometry>
        </mxCell>
        <mxCell id="QIQ5kJItUbip3SlNVDkh-21" style="edgeStyle=none;shape=connector;rounded=0;orthogonalLoop=1;jettySize=auto;html=1;strokeColor=default;align=center;verticalAlign=middle;fontFamily=Helvetica;fontSize=11;fontColor=default;labelBackgroundColor=default;endArrow=classic;" edge="1" parent="QIQ5kJItUbip3SlNVDkh-23" source="Tflg92C3cAOVluI08kxh-4" target="QIQ5kJItUbip3SlNVDkh-22">
          <mxGeometry relative="1" as="geometry">
            <mxPoint x="30" y="170" as="targetPoint" />
          </mxGeometry>
        </mxCell>
        <mxCell id="Tflg92C3cAOVluI08kxh-4" value="&lt;font style=&quot;font-size: 35px;&quot;&gt;keeper&lt;/font&gt;" style="rounded=0;whiteSpace=wrap;html=1;" parent="QIQ5kJItUbip3SlNVDkh-23" vertex="1">
          <mxGeometry x="110" y="120" width="120" height="60" as="geometry" />
        </mxCell>
        <mxCell id="QIQ5kJItUbip3SlNVDkh-12" value="ID" style="ellipse;whiteSpace=wrap;html=1;aspect=fixed;fontFamily=Helvetica;fontSize=11;fontColor=default;labelBackgroundColor=default;" vertex="1" parent="QIQ5kJItUbip3SlNVDkh-23">
          <mxGeometry x="300" y="110" width="80" height="80" as="geometry" />
        </mxCell>
        <mxCell id="QIQ5kJItUbip3SlNVDkh-14" value="password" style="ellipse;whiteSpace=wrap;html=1;aspect=fixed;fontFamily=Helvetica;fontSize=11;fontColor=default;labelBackgroundColor=default;" vertex="1" parent="QIQ5kJItUbip3SlNVDkh-23">
          <mxGeometry x="290" y="200" width="80" height="80" as="geometry" />
        </mxCell>
        <mxCell id="QIQ5kJItUbip3SlNVDkh-16" value="name" style="ellipse;whiteSpace=wrap;html=1;aspect=fixed;fontFamily=Helvetica;fontSize=11;fontColor=default;labelBackgroundColor=default;" vertex="1" parent="QIQ5kJItUbip3SlNVDkh-23">
          <mxGeometry x="220" y="20" width="80" height="80" as="geometry" />
        </mxCell>
        <mxCell id="QIQ5kJItUbip3SlNVDkh-18" value="gender" style="ellipse;whiteSpace=wrap;html=1;aspect=fixed;fontFamily=Helvetica;fontSize=11;fontColor=default;labelBackgroundColor=default;" vertex="1" parent="QIQ5kJItUbip3SlNVDkh-23">
          <mxGeometry x="100" width="80" height="80" as="geometry" />
        </mxCell>
        <mxCell id="QIQ5kJItUbip3SlNVDkh-20" value="nation" style="ellipse;whiteSpace=wrap;html=1;aspect=fixed;fontFamily=Helvetica;fontSize=11;fontColor=default;labelBackgroundColor=default;" vertex="1" parent="QIQ5kJItUbip3SlNVDkh-23">
          <mxGeometry y="40" width="80" height="80" as="geometry" />
        </mxCell>
        <mxCell id="QIQ5kJItUbip3SlNVDkh-22" value="account" style="ellipse;whiteSpace=wrap;html=1;aspect=fixed;fontFamily=Helvetica;fontSize=11;fontColor=default;labelBackgroundColor=default;" vertex="1" parent="QIQ5kJItUbip3SlNVDkh-23">
          <mxGeometry y="190" width="80" height="80" as="geometry" />
        </mxCell>
        <mxCell id="QIQ5kJItUbip3SlNVDkh-54" value="" style="group" vertex="1" connectable="0" parent="1">
          <mxGeometry x="1540" y="2010" width="360" height="350" as="geometry" />
        </mxCell>
        <mxCell id="QIQ5kJItUbip3SlNVDkh-38" style="edgeStyle=none;shape=connector;rounded=0;orthogonalLoop=1;jettySize=auto;html=1;strokeColor=default;align=center;verticalAlign=middle;fontFamily=Helvetica;fontSize=11;fontColor=default;labelBackgroundColor=default;endArrow=classic;" edge="1" parent="QIQ5kJItUbip3SlNVDkh-54" source="Tflg92C3cAOVluI08kxh-1" target="QIQ5kJItUbip3SlNVDkh-39">
          <mxGeometry relative="1" as="geometry">
            <mxPoint x="190" y="130" as="targetPoint" />
          </mxGeometry>
        </mxCell>
        <mxCell id="QIQ5kJItUbip3SlNVDkh-40" style="edgeStyle=none;shape=connector;rounded=0;orthogonalLoop=1;jettySize=auto;html=1;strokeColor=default;align=center;verticalAlign=middle;fontFamily=Helvetica;fontSize=11;fontColor=default;labelBackgroundColor=default;endArrow=classic;" edge="1" parent="QIQ5kJItUbip3SlNVDkh-54" source="Tflg92C3cAOVluI08kxh-1" target="QIQ5kJItUbip3SlNVDkh-41">
          <mxGeometry relative="1" as="geometry">
            <mxPoint x="320" y="190" as="targetPoint" />
          </mxGeometry>
        </mxCell>
        <mxCell id="QIQ5kJItUbip3SlNVDkh-42" style="edgeStyle=none;shape=connector;rounded=0;orthogonalLoop=1;jettySize=auto;html=1;strokeColor=default;align=center;verticalAlign=middle;fontFamily=Helvetica;fontSize=11;fontColor=default;labelBackgroundColor=default;endArrow=classic;" edge="1" parent="QIQ5kJItUbip3SlNVDkh-54" source="Tflg92C3cAOVluI08kxh-1" target="QIQ5kJItUbip3SlNVDkh-43">
          <mxGeometry relative="1" as="geometry">
            <mxPoint x="300" y="310" as="targetPoint" />
          </mxGeometry>
        </mxCell>
        <mxCell id="QIQ5kJItUbip3SlNVDkh-44" style="edgeStyle=none;shape=connector;rounded=0;orthogonalLoop=1;jettySize=auto;html=1;strokeColor=default;align=center;verticalAlign=middle;fontFamily=Helvetica;fontSize=11;fontColor=default;labelBackgroundColor=default;endArrow=classic;" edge="1" parent="QIQ5kJItUbip3SlNVDkh-54" source="Tflg92C3cAOVluI08kxh-1" target="QIQ5kJItUbip3SlNVDkh-45">
          <mxGeometry relative="1" as="geometry">
            <mxPoint x="170" y="290" as="targetPoint" />
          </mxGeometry>
        </mxCell>
        <mxCell id="QIQ5kJItUbip3SlNVDkh-46" style="edgeStyle=none;shape=connector;rounded=0;orthogonalLoop=1;jettySize=auto;html=1;strokeColor=default;align=center;verticalAlign=middle;fontFamily=Helvetica;fontSize=11;fontColor=default;labelBackgroundColor=default;endArrow=classic;" edge="1" parent="QIQ5kJItUbip3SlNVDkh-54" source="Tflg92C3cAOVluI08kxh-1" target="QIQ5kJItUbip3SlNVDkh-47">
          <mxGeometry relative="1" as="geometry">
            <mxPoint x="70" y="250" as="targetPoint" />
          </mxGeometry>
        </mxCell>
        <mxCell id="QIQ5kJItUbip3SlNVDkh-48" style="edgeStyle=none;shape=connector;rounded=0;orthogonalLoop=1;jettySize=auto;html=1;strokeColor=default;align=center;verticalAlign=middle;fontFamily=Helvetica;fontSize=11;fontColor=default;labelBackgroundColor=default;endArrow=classic;" edge="1" parent="QIQ5kJItUbip3SlNVDkh-54" source="Tflg92C3cAOVluI08kxh-1" target="QIQ5kJItUbip3SlNVDkh-49">
          <mxGeometry relative="1" as="geometry">
            <mxPoint x="70" y="140" as="targetPoint" />
          </mxGeometry>
        </mxCell>
        <mxCell id="QIQ5kJItUbip3SlNVDkh-50" style="edgeStyle=none;shape=connector;rounded=0;orthogonalLoop=1;jettySize=auto;html=1;strokeColor=default;align=center;verticalAlign=middle;fontFamily=Helvetica;fontSize=11;fontColor=default;labelBackgroundColor=default;endArrow=classic;" edge="1" parent="QIQ5kJItUbip3SlNVDkh-54" source="Tflg92C3cAOVluI08kxh-1" target="QIQ5kJItUbip3SlNVDkh-51">
          <mxGeometry relative="1" as="geometry">
            <mxPoint x="280" y="90" as="targetPoint" />
          </mxGeometry>
        </mxCell>
        <mxCell id="QIQ5kJItUbip3SlNVDkh-52" style="edgeStyle=none;shape=connector;rounded=0;orthogonalLoop=1;jettySize=auto;html=1;strokeColor=default;align=center;verticalAlign=middle;fontFamily=Helvetica;fontSize=11;fontColor=default;labelBackgroundColor=default;endArrow=classic;" edge="1" parent="QIQ5kJItUbip3SlNVDkh-54" source="Tflg92C3cAOVluI08kxh-1" target="QIQ5kJItUbip3SlNVDkh-53">
          <mxGeometry relative="1" as="geometry">
            <mxPoint x="100" y="70" as="targetPoint" />
          </mxGeometry>
        </mxCell>
        <mxCell id="Tflg92C3cAOVluI08kxh-1" value="&lt;font style=&quot;font-size: 35px;&quot;&gt;teacher&lt;/font&gt;" style="rounded=0;whiteSpace=wrap;html=1;" parent="QIQ5kJItUbip3SlNVDkh-54" vertex="1">
          <mxGeometry x="130" y="170" width="120" height="60" as="geometry" />
        </mxCell>
        <mxCell id="QIQ5kJItUbip3SlNVDkh-39" value="ID" style="ellipse;whiteSpace=wrap;html=1;aspect=fixed;fontFamily=Helvetica;fontSize=11;fontColor=default;labelBackgroundColor=default;" vertex="1" parent="QIQ5kJItUbip3SlNVDkh-54">
          <mxGeometry x="140" y="50" width="80" height="80" as="geometry" />
        </mxCell>
        <mxCell id="QIQ5kJItUbip3SlNVDkh-41" value="password" style="ellipse;whiteSpace=wrap;html=1;aspect=fixed;fontFamily=Helvetica;fontSize=11;fontColor=default;labelBackgroundColor=default;" vertex="1" parent="QIQ5kJItUbip3SlNVDkh-54">
          <mxGeometry x="280" y="150" width="80" height="80" as="geometry" />
        </mxCell>
        <mxCell id="QIQ5kJItUbip3SlNVDkh-43" value="name" style="ellipse;whiteSpace=wrap;html=1;aspect=fixed;fontFamily=Helvetica;fontSize=11;fontColor=default;labelBackgroundColor=default;" vertex="1" parent="QIQ5kJItUbip3SlNVDkh-54">
          <mxGeometry x="260" y="270" width="80" height="80" as="geometry" />
        </mxCell>
        <mxCell id="QIQ5kJItUbip3SlNVDkh-45" value="gender" style="ellipse;whiteSpace=wrap;html=1;aspect=fixed;fontFamily=Helvetica;fontSize=11;fontColor=default;labelBackgroundColor=default;" vertex="1" parent="QIQ5kJItUbip3SlNVDkh-54">
          <mxGeometry x="120" y="260" width="80" height="80" as="geometry" />
        </mxCell>
        <mxCell id="QIQ5kJItUbip3SlNVDkh-47" value="nation" style="ellipse;whiteSpace=wrap;html=1;aspect=fixed;fontFamily=Helvetica;fontSize=11;fontColor=default;labelBackgroundColor=default;" vertex="1" parent="QIQ5kJItUbip3SlNVDkh-54">
          <mxGeometry y="210" width="80" height="80" as="geometry" />
        </mxCell>
        <mxCell id="QIQ5kJItUbip3SlNVDkh-49" value="major" style="ellipse;whiteSpace=wrap;html=1;aspect=fixed;fontFamily=Helvetica;fontSize=11;fontColor=default;labelBackgroundColor=default;" vertex="1" parent="QIQ5kJItUbip3SlNVDkh-54">
          <mxGeometry x="20" y="100" width="80" height="80" as="geometry" />
        </mxCell>
        <mxCell id="QIQ5kJItUbip3SlNVDkh-51" value="account" style="ellipse;whiteSpace=wrap;html=1;aspect=fixed;fontFamily=Helvetica;fontSize=11;fontColor=default;labelBackgroundColor=default;" vertex="1" parent="QIQ5kJItUbip3SlNVDkh-54">
          <mxGeometry x="240" y="50" width="80" height="80" as="geometry" />
        </mxCell>
        <mxCell id="QIQ5kJItUbip3SlNVDkh-53" value="title" style="ellipse;whiteSpace=wrap;html=1;aspect=fixed;fontFamily=Helvetica;fontSize=11;fontColor=default;labelBackgroundColor=default;" vertex="1" parent="QIQ5kJItUbip3SlNVDkh-54">
          <mxGeometry x="30" width="80" height="80" as="geometry" />
        </mxCell>
        <mxCell id="QIQ5kJItUbip3SlNVDkh-55" value="" style="group" vertex="1" connectable="0" parent="1">
          <mxGeometry x="460" y="50" width="240" height="350" as="geometry" />
        </mxCell>
        <mxCell id="QIQ5kJItUbip3SlNVDkh-56" value="&lt;font style=&quot;font-size: 35px;&quot;&gt;area&lt;/font&gt;" style="rounded=1;whiteSpace=wrap;html=1;" vertex="1" parent="QIQ5kJItUbip3SlNVDkh-55">
          <mxGeometry y="150" width="120" height="60" as="geometry" />
        </mxCell>
        <mxCell id="QIQ5kJItUbip3SlNVDkh-57" value="ID" style="ellipse;whiteSpace=wrap;html=1;aspect=fixed;" vertex="1" parent="QIQ5kJItUbip3SlNVDkh-55">
          <mxGeometry x="20" width="80" height="80" as="geometry" />
        </mxCell>
        <mxCell id="QIQ5kJItUbip3SlNVDkh-58" value="" style="endArrow=classic;html=1;exitX=0.5;exitY=0;exitDx=0;exitDy=0;" edge="1" parent="QIQ5kJItUbip3SlNVDkh-55" source="QIQ5kJItUbip3SlNVDkh-56" target="QIQ5kJItUbip3SlNVDkh-57">
          <mxGeometry width="50" height="50" relative="1" as="geometry">
            <mxPoint x="30" y="140" as="sourcePoint" />
            <mxPoint x="80" y="90" as="targetPoint" />
          </mxGeometry>
        </mxCell>
        <mxCell id="QIQ5kJItUbip3SlNVDkh-59" value="" style="group" vertex="1" connectable="0" parent="QIQ5kJItUbip3SlNVDkh-55">
          <mxGeometry x="120" y="60" width="120" height="120" as="geometry" />
        </mxCell>
        <mxCell id="QIQ5kJItUbip3SlNVDkh-60" value="" style="endArrow=classic;html=1;entryX=0.425;entryY=0.988;entryDx=0;entryDy=0;entryPerimeter=0;" edge="1" parent="QIQ5kJItUbip3SlNVDkh-59" target="QIQ5kJItUbip3SlNVDkh-61">
          <mxGeometry width="50" height="50" relative="1" as="geometry">
            <mxPoint y="120" as="sourcePoint" />
            <mxPoint x="50" y="70" as="targetPoint" />
          </mxGeometry>
        </mxCell>
        <mxCell id="QIQ5kJItUbip3SlNVDkh-61" value="name" style="ellipse;whiteSpace=wrap;html=1;aspect=fixed;" vertex="1" parent="QIQ5kJItUbip3SlNVDkh-59">
          <mxGeometry x="40" width="80" height="80" as="geometry" />
        </mxCell>
        <mxCell id="QIQ5kJItUbip3SlNVDkh-62" value="" style="endArrow=classic;html=1;exitX=0.413;exitY=1.017;exitDx=0;exitDy=0;exitPerimeter=0;" edge="1" parent="QIQ5kJItUbip3SlNVDkh-55" source="QIQ5kJItUbip3SlNVDkh-56">
          <mxGeometry width="50" height="50" relative="1" as="geometry">
            <mxPoint x="50" y="360" as="sourcePoint" />
            <mxPoint x="50" y="270" as="targetPoint" />
          </mxGeometry>
        </mxCell>
        <mxCell id="QIQ5kJItUbip3SlNVDkh-63" value="address" style="ellipse;whiteSpace=wrap;html=1;aspect=fixed;" vertex="1" parent="QIQ5kJItUbip3SlNVDkh-55">
          <mxGeometry x="10" y="270" width="80" height="80" as="geometry" />
        </mxCell>
        <mxCell id="QIQ5kJItUbip3SlNVDkh-97" value="&lt;font style=&quot;font-size: 35px;&quot;&gt;1&lt;/font&gt;" style="text;html=1;align=center;verticalAlign=middle;whiteSpace=wrap;rounded=0;fontFamily=Helvetica;fontSize=11;fontColor=default;labelBackgroundColor=default;" vertex="1" parent="QIQ5kJItUbip3SlNVDkh-55">
          <mxGeometry x="150" y="200" width="60" height="30" as="geometry" />
        </mxCell>
        <mxCell id="QIQ5kJItUbip3SlNVDkh-99" style="edgeStyle=none;shape=connector;rounded=0;orthogonalLoop=1;jettySize=auto;html=1;exitX=0.5;exitY=1;exitDx=0;exitDy=0;entryX=0.75;entryY=1;entryDx=0;entryDy=0;strokeColor=default;align=center;verticalAlign=middle;fontFamily=Helvetica;fontSize=11;fontColor=default;labelBackgroundColor=default;endArrow=classic;" edge="1" parent="QIQ5kJItUbip3SlNVDkh-55" source="QIQ5kJItUbip3SlNVDkh-97" target="QIQ5kJItUbip3SlNVDkh-97">
          <mxGeometry relative="1" as="geometry" />
        </mxCell>
        <mxCell id="QIQ5kJItUbip3SlNVDkh-64" value="" style="group" vertex="1" connectable="0" parent="1">
          <mxGeometry x="1920" y="800" width="240" height="210" as="geometry" />
        </mxCell>
        <mxCell id="QIQ5kJItUbip3SlNVDkh-65" value="&lt;font style=&quot;font-size: 35px;&quot;&gt;class&lt;/font&gt;" style="rounded=1;whiteSpace=wrap;html=1;" vertex="1" parent="QIQ5kJItUbip3SlNVDkh-64">
          <mxGeometry y="150" width="120" height="60" as="geometry" />
        </mxCell>
        <mxCell id="QIQ5kJItUbip3SlNVDkh-66" value="ID" style="ellipse;whiteSpace=wrap;html=1;aspect=fixed;" vertex="1" parent="QIQ5kJItUbip3SlNVDkh-64">
          <mxGeometry x="20" width="80" height="80" as="geometry" />
        </mxCell>
        <mxCell id="QIQ5kJItUbip3SlNVDkh-67" value="" style="endArrow=classic;html=1;exitX=0.5;exitY=0;exitDx=0;exitDy=0;" edge="1" parent="QIQ5kJItUbip3SlNVDkh-64" source="QIQ5kJItUbip3SlNVDkh-65" target="QIQ5kJItUbip3SlNVDkh-66">
          <mxGeometry width="50" height="50" relative="1" as="geometry">
            <mxPoint x="30" y="140" as="sourcePoint" />
            <mxPoint x="80" y="90" as="targetPoint" />
          </mxGeometry>
        </mxCell>
        <mxCell id="QIQ5kJItUbip3SlNVDkh-68" value="" style="group" vertex="1" connectable="0" parent="QIQ5kJItUbip3SlNVDkh-64">
          <mxGeometry x="120" y="60" width="120" height="120" as="geometry" />
        </mxCell>
        <mxCell id="QIQ5kJItUbip3SlNVDkh-69" value="" style="endArrow=classic;html=1;entryX=0.425;entryY=0.988;entryDx=0;entryDy=0;entryPerimeter=0;" edge="1" parent="QIQ5kJItUbip3SlNVDkh-68" target="QIQ5kJItUbip3SlNVDkh-70">
          <mxGeometry width="50" height="50" relative="1" as="geometry">
            <mxPoint y="120" as="sourcePoint" />
            <mxPoint x="50" y="70" as="targetPoint" />
          </mxGeometry>
        </mxCell>
        <mxCell id="QIQ5kJItUbip3SlNVDkh-70" value="name" style="ellipse;whiteSpace=wrap;html=1;aspect=fixed;" vertex="1" parent="QIQ5kJItUbip3SlNVDkh-68">
          <mxGeometry x="40" width="80" height="80" as="geometry" />
        </mxCell>
        <mxCell id="QIQ5kJItUbip3SlNVDkh-71" value="" style="group" vertex="1" connectable="0" parent="1">
          <mxGeometry x="1750" y="60" width="240" height="210" as="geometry" />
        </mxCell>
        <mxCell id="QIQ5kJItUbip3SlNVDkh-72" value="&lt;font style=&quot;font-size: 35px;&quot;&gt;college&lt;/font&gt;" style="rounded=1;whiteSpace=wrap;html=1;" vertex="1" parent="QIQ5kJItUbip3SlNVDkh-71">
          <mxGeometry y="150" width="120" height="60" as="geometry" />
        </mxCell>
        <mxCell id="QIQ5kJItUbip3SlNVDkh-73" value="ID" style="ellipse;whiteSpace=wrap;html=1;aspect=fixed;" vertex="1" parent="QIQ5kJItUbip3SlNVDkh-71">
          <mxGeometry x="20" width="80" height="80" as="geometry" />
        </mxCell>
        <mxCell id="QIQ5kJItUbip3SlNVDkh-74" value="" style="endArrow=classic;html=1;exitX=0.5;exitY=0;exitDx=0;exitDy=0;" edge="1" parent="QIQ5kJItUbip3SlNVDkh-71" source="QIQ5kJItUbip3SlNVDkh-72" target="QIQ5kJItUbip3SlNVDkh-73">
          <mxGeometry width="50" height="50" relative="1" as="geometry">
            <mxPoint x="30" y="140" as="sourcePoint" />
            <mxPoint x="80" y="90" as="targetPoint" />
          </mxGeometry>
        </mxCell>
        <mxCell id="QIQ5kJItUbip3SlNVDkh-75" value="" style="group" vertex="1" connectable="0" parent="QIQ5kJItUbip3SlNVDkh-71">
          <mxGeometry x="120" y="60" width="120" height="120" as="geometry" />
        </mxCell>
        <mxCell id="QIQ5kJItUbip3SlNVDkh-76" value="" style="endArrow=classic;html=1;entryX=0.425;entryY=0.988;entryDx=0;entryDy=0;entryPerimeter=0;" edge="1" parent="QIQ5kJItUbip3SlNVDkh-75" target="QIQ5kJItUbip3SlNVDkh-77">
          <mxGeometry width="50" height="50" relative="1" as="geometry">
            <mxPoint y="120" as="sourcePoint" />
            <mxPoint x="50" y="70" as="targetPoint" />
          </mxGeometry>
        </mxCell>
        <mxCell id="QIQ5kJItUbip3SlNVDkh-77" value="name" style="ellipse;whiteSpace=wrap;html=1;aspect=fixed;" vertex="1" parent="QIQ5kJItUbip3SlNVDkh-75">
          <mxGeometry x="40" width="80" height="80" as="geometry" />
        </mxCell>
        <mxCell id="QIQ5kJItUbip3SlNVDkh-78" value="" style="group" vertex="1" connectable="0" parent="1">
          <mxGeometry x="1050" y="60" width="240" height="350" as="geometry" />
        </mxCell>
        <mxCell id="QIQ5kJItUbip3SlNVDkh-79" value="&lt;font style=&quot;font-size: 35px;&quot;&gt;building&lt;/font&gt;" style="rounded=1;whiteSpace=wrap;html=1;" vertex="1" parent="QIQ5kJItUbip3SlNVDkh-78">
          <mxGeometry y="145" width="120" height="60" as="geometry" />
        </mxCell>
        <mxCell id="QIQ5kJItUbip3SlNVDkh-80" value="ID" style="ellipse;whiteSpace=wrap;html=1;aspect=fixed;" vertex="1" parent="QIQ5kJItUbip3SlNVDkh-78">
          <mxGeometry x="20" width="80" height="80" as="geometry" />
        </mxCell>
        <mxCell id="QIQ5kJItUbip3SlNVDkh-81" value="" style="endArrow=classic;html=1;exitX=0.5;exitY=0;exitDx=0;exitDy=0;" edge="1" parent="QIQ5kJItUbip3SlNVDkh-78" source="QIQ5kJItUbip3SlNVDkh-79" target="QIQ5kJItUbip3SlNVDkh-80">
          <mxGeometry width="50" height="50" relative="1" as="geometry">
            <mxPoint x="30" y="140" as="sourcePoint" />
            <mxPoint x="80" y="90" as="targetPoint" />
          </mxGeometry>
        </mxCell>
        <mxCell id="QIQ5kJItUbip3SlNVDkh-82" value="" style="group" vertex="1" connectable="0" parent="QIQ5kJItUbip3SlNVDkh-78">
          <mxGeometry x="120" y="60" width="120" height="120" as="geometry" />
        </mxCell>
        <mxCell id="QIQ5kJItUbip3SlNVDkh-83" value="" style="endArrow=classic;html=1;entryX=0.425;entryY=0.988;entryDx=0;entryDy=0;entryPerimeter=0;" edge="1" parent="QIQ5kJItUbip3SlNVDkh-82" target="QIQ5kJItUbip3SlNVDkh-84">
          <mxGeometry width="50" height="50" relative="1" as="geometry">
            <mxPoint y="120" as="sourcePoint" />
            <mxPoint x="50" y="70" as="targetPoint" />
          </mxGeometry>
        </mxCell>
        <mxCell id="QIQ5kJItUbip3SlNVDkh-84" value="name" style="ellipse;whiteSpace=wrap;html=1;aspect=fixed;" vertex="1" parent="QIQ5kJItUbip3SlNVDkh-82">
          <mxGeometry x="40" width="80" height="80" as="geometry" />
        </mxCell>
        <mxCell id="QIQ5kJItUbip3SlNVDkh-85" value="" style="endArrow=classic;html=1;exitX=0.413;exitY=1.017;exitDx=0;exitDy=0;exitPerimeter=0;" edge="1" parent="QIQ5kJItUbip3SlNVDkh-78" source="QIQ5kJItUbip3SlNVDkh-79">
          <mxGeometry width="50" height="50" relative="1" as="geometry">
            <mxPoint x="50" y="360" as="sourcePoint" />
            <mxPoint x="50" y="270" as="targetPoint" />
          </mxGeometry>
        </mxCell>
        <mxCell id="QIQ5kJItUbip3SlNVDkh-86" value="area" style="ellipse;whiteSpace=wrap;html=1;aspect=fixed;" vertex="1" parent="QIQ5kJItUbip3SlNVDkh-78">
          <mxGeometry x="10" y="270" width="80" height="80" as="geometry" />
        </mxCell>
        <mxCell id="QIQ5kJItUbip3SlNVDkh-87" value="" style="group" vertex="1" connectable="0" parent="1">
          <mxGeometry x="-150" y="891" width="520" height="360" as="geometry" />
        </mxCell>
        <mxCell id="QIQ5kJItUbip3SlNVDkh-10" value="" style="group" vertex="1" connectable="0" parent="QIQ5kJItUbip3SlNVDkh-87">
          <mxGeometry x="60" width="460" height="360" as="geometry" />
        </mxCell>
        <mxCell id="Tflg92C3cAOVluI08kxh-52" value="" style="edgeStyle=none;shape=connector;rounded=0;orthogonalLoop=1;jettySize=auto;html=1;strokeColor=default;align=center;verticalAlign=middle;fontFamily=Helvetica;fontSize=12;fontColor=default;labelBackgroundColor=default;endArrow=classic;" parent="QIQ5kJItUbip3SlNVDkh-10" source="Tflg92C3cAOVluI08kxh-3" target="Tflg92C3cAOVluI08kxh-51" edge="1">
          <mxGeometry relative="1" as="geometry" />
        </mxCell>
        <mxCell id="Tflg92C3cAOVluI08kxh-54" value="" style="edgeStyle=none;shape=connector;rounded=0;orthogonalLoop=1;jettySize=auto;html=1;strokeColor=default;align=center;verticalAlign=middle;fontFamily=Helvetica;fontSize=12;fontColor=default;labelBackgroundColor=default;endArrow=classic;" parent="QIQ5kJItUbip3SlNVDkh-10" source="Tflg92C3cAOVluI08kxh-3" target="Tflg92C3cAOVluI08kxh-53" edge="1">
          <mxGeometry relative="1" as="geometry" />
        </mxCell>
        <mxCell id="Tflg92C3cAOVluI08kxh-56" value="" style="edgeStyle=none;shape=connector;rounded=0;orthogonalLoop=1;jettySize=auto;html=1;strokeColor=default;align=center;verticalAlign=middle;fontFamily=Helvetica;fontSize=12;fontColor=default;labelBackgroundColor=default;endArrow=classic;" parent="QIQ5kJItUbip3SlNVDkh-10" source="Tflg92C3cAOVluI08kxh-3" target="Tflg92C3cAOVluI08kxh-55" edge="1">
          <mxGeometry relative="1" as="geometry" />
        </mxCell>
        <mxCell id="QIQ5kJItUbip3SlNVDkh-4" value="" style="rounded=0;orthogonalLoop=1;jettySize=auto;html=1;" edge="1" parent="QIQ5kJItUbip3SlNVDkh-10" source="Tflg92C3cAOVluI08kxh-3" target="QIQ5kJItUbip3SlNVDkh-3">
          <mxGeometry relative="1" as="geometry" />
        </mxCell>
        <mxCell id="QIQ5kJItUbip3SlNVDkh-8" style="edgeStyle=none;shape=connector;rounded=0;orthogonalLoop=1;jettySize=auto;html=1;strokeColor=default;align=center;verticalAlign=middle;fontFamily=Helvetica;fontSize=11;fontColor=default;labelBackgroundColor=default;endArrow=classic;" edge="1" parent="QIQ5kJItUbip3SlNVDkh-10" source="Tflg92C3cAOVluI08kxh-3" target="QIQ5kJItUbip3SlNVDkh-9">
          <mxGeometry relative="1" as="geometry">
            <mxPoint x="320" y="80" as="targetPoint" />
          </mxGeometry>
        </mxCell>
        <mxCell id="QIQ5kJItUbip3SlNVDkh-146" style="edgeStyle=none;shape=connector;rounded=0;orthogonalLoop=1;jettySize=auto;html=1;strokeColor=default;align=center;verticalAlign=middle;fontFamily=Helvetica;fontSize=11;fontColor=default;labelBackgroundColor=default;endArrow=classic;" edge="1" parent="QIQ5kJItUbip3SlNVDkh-10" source="Tflg92C3cAOVluI08kxh-3">
          <mxGeometry relative="1" as="geometry">
            <mxPoint x="880" y="129" as="targetPoint" />
          </mxGeometry>
        </mxCell>
        <mxCell id="Tflg92C3cAOVluI08kxh-3" value="&lt;font style=&quot;font-size: 35px;&quot;&gt;domitory_admin&lt;/font&gt;" style="rounded=0;whiteSpace=wrap;html=1;" parent="QIQ5kJItUbip3SlNVDkh-10" vertex="1">
          <mxGeometry x="30" y="140" width="290" height="100" as="geometry" />
        </mxCell>
        <mxCell id="Tflg92C3cAOVluI08kxh-51" value="ID" style="ellipse;whiteSpace=wrap;html=1;rounded=0;" parent="QIQ5kJItUbip3SlNVDkh-10" vertex="1">
          <mxGeometry x="380" y="140" width="80" height="80" as="geometry" />
        </mxCell>
        <mxCell id="Tflg92C3cAOVluI08kxh-53" value="name" style="ellipse;whiteSpace=wrap;html=1;rounded=0;" parent="QIQ5kJItUbip3SlNVDkh-10" vertex="1">
          <mxGeometry x="180" y="280" width="80" height="80" as="geometry" />
        </mxCell>
        <mxCell id="Tflg92C3cAOVluI08kxh-55" value="password" style="ellipse;whiteSpace=wrap;html=1;rounded=0;" parent="QIQ5kJItUbip3SlNVDkh-10" vertex="1">
          <mxGeometry x="180" width="80" height="80" as="geometry" />
        </mxCell>
        <mxCell id="QIQ5kJItUbip3SlNVDkh-3" value="gender" style="ellipse;whiteSpace=wrap;html=1;rounded=0;" vertex="1" parent="QIQ5kJItUbip3SlNVDkh-10">
          <mxGeometry x="-10" y="10" width="80" height="80" as="geometry" />
        </mxCell>
        <mxCell id="QIQ5kJItUbip3SlNVDkh-9" value="account" style="ellipse;whiteSpace=wrap;html=1;aspect=fixed;fontFamily=Helvetica;fontSize=11;fontColor=default;labelBackgroundColor=default;" vertex="1" parent="QIQ5kJItUbip3SlNVDkh-10">
          <mxGeometry x="300" y="20" width="80" height="80" as="geometry" />
        </mxCell>
        <mxCell id="QIQ5kJItUbip3SlNVDkh-7" value="nation" style="ellipse;whiteSpace=wrap;html=1;aspect=fixed;fontFamily=Helvetica;fontSize=11;fontColor=default;labelBackgroundColor=default;" vertex="1" parent="QIQ5kJItUbip3SlNVDkh-87">
          <mxGeometry y="140" width="80" height="80" as="geometry" />
        </mxCell>
        <mxCell id="QIQ5kJItUbip3SlNVDkh-6" style="edgeStyle=none;shape=connector;rounded=0;orthogonalLoop=1;jettySize=auto;html=1;strokeColor=default;align=center;verticalAlign=middle;fontFamily=Helvetica;fontSize=11;fontColor=default;labelBackgroundColor=default;endArrow=classic;" edge="1" parent="QIQ5kJItUbip3SlNVDkh-87" source="Tflg92C3cAOVluI08kxh-3" target="QIQ5kJItUbip3SlNVDkh-7">
          <mxGeometry relative="1" as="geometry">
            <mxPoint x="200" y="210" as="targetPoint" />
          </mxGeometry>
        </mxCell>
        <mxCell id="QIQ5kJItUbip3SlNVDkh-89" value="" style="group" vertex="1" connectable="0" parent="1">
          <mxGeometry x="-1000" y="1361" width="380" height="320" as="geometry" />
        </mxCell>
        <mxCell id="QIQ5kJItUbip3SlNVDkh-31" style="edgeStyle=none;shape=connector;rounded=0;orthogonalLoop=1;jettySize=auto;html=1;strokeColor=default;align=center;verticalAlign=middle;fontFamily=Helvetica;fontSize=11;fontColor=default;labelBackgroundColor=default;endArrow=classic;" edge="1" parent="QIQ5kJItUbip3SlNVDkh-89" source="Tflg92C3cAOVluI08kxh-6" target="QIQ5kJItUbip3SlNVDkh-32">
          <mxGeometry relative="1" as="geometry">
            <mxPoint x="350" y="120" as="targetPoint" />
          </mxGeometry>
        </mxCell>
        <mxCell id="QIQ5kJItUbip3SlNVDkh-33" style="edgeStyle=none;shape=connector;rounded=0;orthogonalLoop=1;jettySize=auto;html=1;strokeColor=default;align=center;verticalAlign=middle;fontFamily=Helvetica;fontSize=11;fontColor=default;labelBackgroundColor=default;endArrow=classic;" edge="1" parent="QIQ5kJItUbip3SlNVDkh-89" source="Tflg92C3cAOVluI08kxh-6" target="QIQ5kJItUbip3SlNVDkh-34">
          <mxGeometry relative="1" as="geometry">
            <mxPoint x="280" y="220" as="targetPoint" />
          </mxGeometry>
        </mxCell>
        <mxCell id="QIQ5kJItUbip3SlNVDkh-35" style="edgeStyle=none;shape=connector;rounded=0;orthogonalLoop=1;jettySize=auto;html=1;strokeColor=default;align=center;verticalAlign=middle;fontFamily=Helvetica;fontSize=11;fontColor=default;labelBackgroundColor=default;endArrow=classic;" edge="1" parent="QIQ5kJItUbip3SlNVDkh-89" source="Tflg92C3cAOVluI08kxh-6" target="QIQ5kJItUbip3SlNVDkh-36">
          <mxGeometry relative="1" as="geometry">
            <mxPoint x="230" y="60" as="targetPoint" />
          </mxGeometry>
        </mxCell>
        <mxCell id="Tflg92C3cAOVluI08kxh-6" value="&lt;font style=&quot;font-size: 35px;&quot;&gt;super_admin&lt;/font&gt;" style="rounded=0;whiteSpace=wrap;html=1;" parent="QIQ5kJItUbip3SlNVDkh-89" vertex="1">
          <mxGeometry x="140" y="130" width="240" height="60" as="geometry" />
        </mxCell>
        <mxCell id="QIQ5kJItUbip3SlNVDkh-88" value="" style="edgeStyle=none;shape=connector;rounded=0;orthogonalLoop=1;jettySize=auto;html=1;strokeColor=default;align=center;verticalAlign=middle;fontFamily=Helvetica;fontSize=11;fontColor=default;labelBackgroundColor=default;endArrow=classic;" edge="1" parent="QIQ5kJItUbip3SlNVDkh-89" source="QIQ5kJItUbip3SlNVDkh-32" target="Tflg92C3cAOVluI08kxh-6">
          <mxGeometry relative="1" as="geometry" />
        </mxCell>
        <mxCell id="QIQ5kJItUbip3SlNVDkh-32" value="ID" style="ellipse;whiteSpace=wrap;html=1;aspect=fixed;fontFamily=Helvetica;fontSize=11;fontColor=default;labelBackgroundColor=default;" vertex="1" parent="QIQ5kJItUbip3SlNVDkh-89">
          <mxGeometry x="190" width="80" height="80" as="geometry" />
        </mxCell>
        <mxCell id="QIQ5kJItUbip3SlNVDkh-34" value="password" style="ellipse;whiteSpace=wrap;html=1;aspect=fixed;fontFamily=Helvetica;fontSize=11;fontColor=default;labelBackgroundColor=default;" vertex="1" parent="QIQ5kJItUbip3SlNVDkh-89">
          <mxGeometry x="180" y="240" width="80" height="80" as="geometry" />
        </mxCell>
        <mxCell id="QIQ5kJItUbip3SlNVDkh-36" value="account" style="ellipse;whiteSpace=wrap;html=1;aspect=fixed;fontFamily=Helvetica;fontSize=11;fontColor=default;labelBackgroundColor=default;" vertex="1" parent="QIQ5kJItUbip3SlNVDkh-89">
          <mxGeometry y="130" width="80" height="80" as="geometry" />
        </mxCell>
        <mxCell id="QIQ5kJItUbip3SlNVDkh-90" value="" style="group" vertex="1" connectable="0" parent="1">
          <mxGeometry x="1960" y="380" width="320" height="330" as="geometry" />
        </mxCell>
        <mxCell id="QIQ5kJItUbip3SlNVDkh-30" value="" style="group" vertex="1" connectable="0" parent="QIQ5kJItUbip3SlNVDkh-90">
          <mxGeometry y="50" width="320" height="280" as="geometry" />
        </mxCell>
        <mxCell id="QIQ5kJItUbip3SlNVDkh-26" style="edgeStyle=none;shape=connector;rounded=0;orthogonalLoop=1;jettySize=auto;html=1;strokeColor=default;align=center;verticalAlign=middle;fontFamily=Helvetica;fontSize=11;fontColor=default;labelBackgroundColor=default;endArrow=classic;" edge="1" parent="QIQ5kJItUbip3SlNVDkh-30" source="Tflg92C3cAOVluI08kxh-10" target="QIQ5kJItUbip3SlNVDkh-27">
          <mxGeometry relative="1" as="geometry">
            <mxPoint x="250" y="140" as="targetPoint" />
          </mxGeometry>
        </mxCell>
        <mxCell id="QIQ5kJItUbip3SlNVDkh-28" style="edgeStyle=none;shape=connector;rounded=0;orthogonalLoop=1;jettySize=auto;html=1;strokeColor=default;align=center;verticalAlign=middle;fontFamily=Helvetica;fontSize=11;fontColor=default;labelBackgroundColor=default;endArrow=classic;" edge="1" parent="QIQ5kJItUbip3SlNVDkh-30" source="Tflg92C3cAOVluI08kxh-10" target="QIQ5kJItUbip3SlNVDkh-29">
          <mxGeometry relative="1" as="geometry">
            <mxPoint x="200" y="220" as="targetPoint" />
          </mxGeometry>
        </mxCell>
        <mxCell id="Tflg92C3cAOVluI08kxh-10" value="&lt;font style=&quot;font-size: 35px;&quot;&gt;major&lt;/font&gt;" style="rounded=0;whiteSpace=wrap;html=1;" parent="QIQ5kJItUbip3SlNVDkh-30" vertex="1">
          <mxGeometry x="70" y="110" width="120" height="60" as="geometry" />
        </mxCell>
        <mxCell id="QIQ5kJItUbip3SlNVDkh-27" value="name" style="ellipse;whiteSpace=wrap;html=1;aspect=fixed;fontFamily=Helvetica;fontSize=11;fontColor=default;labelBackgroundColor=default;" vertex="1" parent="QIQ5kJItUbip3SlNVDkh-30">
          <mxGeometry x="240" y="150" width="80" height="80" as="geometry" />
        </mxCell>
        <mxCell id="QIQ5kJItUbip3SlNVDkh-29" value="college" style="ellipse;whiteSpace=wrap;html=1;aspect=fixed;fontFamily=Helvetica;fontSize=11;fontColor=default;labelBackgroundColor=default;" vertex="1" parent="QIQ5kJItUbip3SlNVDkh-30">
          <mxGeometry y="200" width="80" height="80" as="geometry" />
        </mxCell>
        <mxCell id="QIQ5kJItUbip3SlNVDkh-94" style="edgeStyle=none;shape=connector;rounded=0;orthogonalLoop=1;jettySize=auto;html=1;exitX=0.75;exitY=0;exitDx=0;exitDy=0;entryX=0.75;entryY=1;entryDx=0;entryDy=0;strokeColor=default;align=center;verticalAlign=middle;fontFamily=Helvetica;fontSize=11;fontColor=default;labelBackgroundColor=default;endArrow=classic;" edge="1" parent="QIQ5kJItUbip3SlNVDkh-30">
          <mxGeometry relative="1" as="geometry">
            <mxPoint x="85" y="10" as="sourcePoint" />
            <mxPoint x="85" y="40" as="targetPoint" />
          </mxGeometry>
        </mxCell>
        <mxCell id="QIQ5kJItUbip3SlNVDkh-25" value="ID" style="ellipse;whiteSpace=wrap;html=1;aspect=fixed;fontFamily=Helvetica;fontSize=11;fontColor=default;labelBackgroundColor=default;" vertex="1" parent="QIQ5kJItUbip3SlNVDkh-90">
          <mxGeometry x="190" width="80" height="80" as="geometry" />
        </mxCell>
        <mxCell id="QIQ5kJItUbip3SlNVDkh-24" style="edgeStyle=none;shape=connector;rounded=0;orthogonalLoop=1;jettySize=auto;html=1;strokeColor=default;align=center;verticalAlign=middle;fontFamily=Helvetica;fontSize=11;fontColor=default;labelBackgroundColor=default;endArrow=classic;" edge="1" parent="QIQ5kJItUbip3SlNVDkh-90" source="Tflg92C3cAOVluI08kxh-10" target="QIQ5kJItUbip3SlNVDkh-25">
          <mxGeometry relative="1" as="geometry">
            <mxPoint x="130" y="100" as="targetPoint" />
          </mxGeometry>
        </mxCell>
        <mxCell id="QIQ5kJItUbip3SlNVDkh-91" style="edgeStyle=none;shape=connector;rounded=0;orthogonalLoop=1;jettySize=auto;html=1;exitX=0.5;exitY=1;exitDx=0;exitDy=0;entryX=0.25;entryY=0;entryDx=0;entryDy=0;strokeColor=default;align=center;verticalAlign=middle;fontFamily=Helvetica;fontSize=11;fontColor=default;labelBackgroundColor=default;endArrow=classic;" edge="1" parent="1" source="QIQ5kJItUbip3SlNVDkh-72" target="Tflg92C3cAOVluI08kxh-10">
          <mxGeometry relative="1" as="geometry" />
        </mxCell>
        <mxCell id="QIQ5kJItUbip3SlNVDkh-92" value="&lt;font style=&quot;font-size: 35px;&quot;&gt;1,n&lt;/font&gt;" style="text;html=1;align=center;verticalAlign=middle;whiteSpace=wrap;rounded=0;fontFamily=Helvetica;fontSize=11;fontColor=default;labelBackgroundColor=default;" vertex="1" parent="1">
          <mxGeometry x="1910" y="340" width="60" height="30" as="geometry" />
        </mxCell>
        <mxCell id="QIQ5kJItUbip3SlNVDkh-96" style="edgeStyle=none;shape=connector;rounded=0;orthogonalLoop=1;jettySize=auto;html=1;entryX=1;entryY=0.75;entryDx=0;entryDy=0;strokeColor=default;align=center;verticalAlign=middle;fontFamily=Helvetica;fontSize=11;fontColor=default;labelBackgroundColor=default;endArrow=classic;" edge="1" parent="1" source="QIQ5kJItUbip3SlNVDkh-79" target="QIQ5kJItUbip3SlNVDkh-56">
          <mxGeometry relative="1" as="geometry" />
        </mxCell>
        <mxCell id="QIQ5kJItUbip3SlNVDkh-98" value="&lt;font style=&quot;font-size: 35px;&quot;&gt;n&lt;/font&gt;" style="text;html=1;align=center;verticalAlign=middle;whiteSpace=wrap;rounded=0;fontFamily=Helvetica;fontSize=11;fontColor=default;labelBackgroundColor=default;" vertex="1" parent="1">
          <mxGeometry x="970" y="250" width="60" height="30" as="geometry" />
        </mxCell>
        <mxCell id="QIQ5kJItUbip3SlNVDkh-101" style="edgeStyle=none;shape=connector;rounded=0;orthogonalLoop=1;jettySize=auto;html=1;entryX=1;entryY=0.5;entryDx=0;entryDy=0;strokeColor=default;align=center;verticalAlign=middle;fontFamily=Helvetica;fontSize=11;fontColor=default;labelBackgroundColor=default;endArrow=classic;" edge="1" parent="1" source="Tflg92C3cAOVluI08kxh-10" target="Tflg92C3cAOVluI08kxh-2">
          <mxGeometry relative="1" as="geometry" />
        </mxCell>
        <mxCell id="QIQ5kJItUbip3SlNVDkh-102" value="&lt;span style=&quot;font-size: 35px;&quot;&gt;n,1&lt;/span&gt;" style="text;html=1;align=center;verticalAlign=middle;whiteSpace=wrap;rounded=0;fontFamily=Helvetica;fontSize=11;fontColor=default;labelBackgroundColor=default;" vertex="1" parent="1">
          <mxGeometry x="1630" y="650" width="60" height="30" as="geometry" />
        </mxCell>
        <mxCell id="QIQ5kJItUbip3SlNVDkh-103" style="edgeStyle=none;shape=connector;rounded=0;orthogonalLoop=1;jettySize=auto;html=1;entryX=1;entryY=0;entryDx=0;entryDy=0;strokeColor=default;align=center;verticalAlign=middle;fontFamily=Helvetica;fontSize=11;fontColor=default;labelBackgroundColor=default;endArrow=classic;" edge="1" parent="1" source="QIQ5kJItUbip3SlNVDkh-79" target="Tflg92C3cAOVluI08kxh-13">
          <mxGeometry relative="1" as="geometry" />
        </mxCell>
        <mxCell id="QIQ5kJItUbip3SlNVDkh-104" value="&lt;font style=&quot;font-size: 35px;&quot;&gt;n,1&lt;/font&gt;" style="text;html=1;align=center;verticalAlign=middle;whiteSpace=wrap;rounded=0;fontFamily=Helvetica;fontSize=11;fontColor=default;labelBackgroundColor=default;" vertex="1" parent="1">
          <mxGeometry x="820" y="360" width="60" height="30" as="geometry" />
        </mxCell>
        <mxCell id="QIQ5kJItUbip3SlNVDkh-106" style="edgeStyle=none;shape=connector;rounded=0;orthogonalLoop=1;jettySize=auto;html=1;entryX=1;entryY=1;entryDx=0;entryDy=0;strokeColor=default;align=center;verticalAlign=middle;fontFamily=Helvetica;fontSize=11;fontColor=default;labelBackgroundColor=default;endArrow=classic;" edge="1" parent="1" source="Tflg92C3cAOVluI08kxh-2" target="Tflg92C3cAOVluI08kxh-13">
          <mxGeometry relative="1" as="geometry" />
        </mxCell>
        <mxCell id="QIQ5kJItUbip3SlNVDkh-107" value="&lt;span style=&quot;font-size: 35px;&quot;&gt;1,n&lt;/span&gt;" style="text;html=1;align=center;verticalAlign=middle;whiteSpace=wrap;rounded=0;fontFamily=Helvetica;fontSize=11;fontColor=default;labelBackgroundColor=default;" vertex="1" parent="1">
          <mxGeometry x="840" y="630" width="60" height="30" as="geometry" />
        </mxCell>
        <mxCell id="QIQ5kJItUbip3SlNVDkh-109" value="&lt;font style=&quot;font-size: 11px;&quot;&gt;floor&lt;/font&gt;" style="ellipse;whiteSpace=wrap;html=1;aspect=fixed;fontFamily=Helvetica;fontSize=11;fontColor=default;labelBackgroundColor=default;" vertex="1" parent="1">
          <mxGeometry x="460.00000000000045" y="505" width="80" height="80" as="geometry" />
        </mxCell>
        <mxCell id="QIQ5kJItUbip3SlNVDkh-108" style="edgeStyle=none;shape=connector;rounded=0;orthogonalLoop=1;jettySize=auto;html=1;strokeColor=default;align=center;verticalAlign=middle;fontFamily=Helvetica;fontSize=11;fontColor=default;labelBackgroundColor=default;endArrow=classic;" edge="1" parent="1" source="Tflg92C3cAOVluI08kxh-13" target="QIQ5kJItUbip3SlNVDkh-109">
          <mxGeometry relative="1" as="geometry">
            <mxPoint x="500.00000000000045" y="545" as="targetPoint" />
          </mxGeometry>
        </mxCell>
        <mxCell id="QIQ5kJItUbip3SlNVDkh-120" style="edgeStyle=none;shape=connector;rounded=0;orthogonalLoop=1;jettySize=auto;html=1;strokeColor=default;align=center;verticalAlign=middle;fontFamily=Helvetica;fontSize=11;fontColor=default;labelBackgroundColor=default;endArrow=classic;" edge="1" parent="1" source="QIQ5kJItUbip3SlNVDkh-114" target="QIQ5kJItUbip3SlNVDkh-121">
          <mxGeometry relative="1" as="geometry">
            <mxPoint x="600.0000000000005" y="780" as="targetPoint" />
          </mxGeometry>
        </mxCell>
        <mxCell id="QIQ5kJItUbip3SlNVDkh-125" value="" style="edgeStyle=none;shape=connector;rounded=0;orthogonalLoop=1;jettySize=auto;html=1;strokeColor=default;align=center;verticalAlign=middle;fontFamily=Helvetica;fontSize=11;fontColor=default;labelBackgroundColor=default;endArrow=classic;" edge="1" parent="1" source="QIQ5kJItUbip3SlNVDkh-114" target="QIQ5kJItUbip3SlNVDkh-124">
          <mxGeometry relative="1" as="geometry" />
        </mxCell>
        <mxCell id="QIQ5kJItUbip3SlNVDkh-114" value="&lt;font style=&quot;font-size: 35px;&quot;&gt;hygiene_check&lt;/font&gt;" style="rhombus;whiteSpace=wrap;html=1;fontFamily=Helvetica;fontSize=11;fontColor=default;labelBackgroundColor=default;rotation=30;" vertex="1" parent="1">
          <mxGeometry x="219.34" y="659.91" width="384.92" height="200" as="geometry" />
        </mxCell>
        <mxCell id="QIQ5kJItUbip3SlNVDkh-113" style="edgeStyle=none;shape=connector;rounded=0;orthogonalLoop=1;jettySize=auto;html=1;exitX=0;exitY=1;exitDx=0;exitDy=0;strokeColor=default;align=center;verticalAlign=middle;fontFamily=Helvetica;fontSize=11;fontColor=default;labelBackgroundColor=default;endArrow=classic;" edge="1" parent="1" source="QIQ5kJItUbip3SlNVDkh-117" target="QIQ5kJItUbip3SlNVDkh-114">
          <mxGeometry relative="1" as="geometry">
            <mxPoint x="490.00000000000045" y="690" as="targetPoint" />
          </mxGeometry>
        </mxCell>
        <mxCell id="QIQ5kJItUbip3SlNVDkh-115" style="edgeStyle=none;shape=connector;rounded=0;orthogonalLoop=1;jettySize=auto;html=1;entryX=0.5;entryY=1;entryDx=0;entryDy=0;strokeColor=default;align=center;verticalAlign=middle;fontFamily=Helvetica;fontSize=11;fontColor=default;labelBackgroundColor=default;endArrow=classic;" edge="1" parent="1" source="QIQ5kJItUbip3SlNVDkh-116" target="QIQ5kJItUbip3SlNVDkh-114">
          <mxGeometry relative="1" as="geometry" />
        </mxCell>
        <mxCell id="QIQ5kJItUbip3SlNVDkh-118" value="" style="edgeStyle=none;shape=connector;rounded=0;orthogonalLoop=1;jettySize=auto;html=1;exitX=0;exitY=1;exitDx=0;exitDy=0;strokeColor=default;align=center;verticalAlign=middle;fontFamily=Helvetica;fontSize=11;fontColor=default;labelBackgroundColor=default;endArrow=classic;" edge="1" parent="1" source="Tflg92C3cAOVluI08kxh-13" target="QIQ5kJItUbip3SlNVDkh-117">
          <mxGeometry relative="1" as="geometry">
            <mxPoint x="501" y="698" as="targetPoint" />
            <mxPoint x="580" y="575" as="sourcePoint" />
          </mxGeometry>
        </mxCell>
        <mxCell id="QIQ5kJItUbip3SlNVDkh-117" value="&lt;font style=&quot;font-size: 35px;&quot;&gt;n&lt;/font&gt;" style="text;html=1;align=center;verticalAlign=middle;whiteSpace=wrap;rounded=0;fontFamily=Helvetica;fontSize=11;fontColor=default;labelBackgroundColor=default;" vertex="1" parent="1">
          <mxGeometry x="500" y="615" width="60" height="30" as="geometry" />
        </mxCell>
        <mxCell id="QIQ5kJItUbip3SlNVDkh-119" value="" style="edgeStyle=none;shape=connector;rounded=0;orthogonalLoop=1;jettySize=auto;html=1;entryX=0.5;entryY=1;entryDx=0;entryDy=0;strokeColor=default;align=center;verticalAlign=middle;fontFamily=Helvetica;fontSize=11;fontColor=default;labelBackgroundColor=default;endArrow=classic;" edge="1" parent="1" source="Tflg92C3cAOVluI08kxh-3" target="QIQ5kJItUbip3SlNVDkh-116">
          <mxGeometry relative="1" as="geometry">
            <mxPoint x="144" y="1031" as="sourcePoint" />
            <mxPoint x="460" y="765" as="targetPoint" />
          </mxGeometry>
        </mxCell>
        <mxCell id="QIQ5kJItUbip3SlNVDkh-116" value="&lt;font style=&quot;font-size: 35px;&quot;&gt;n&lt;/font&gt;" style="text;html=1;align=center;verticalAlign=middle;whiteSpace=wrap;rounded=0;fontFamily=Helvetica;fontSize=11;fontColor=default;labelBackgroundColor=default;" vertex="1" parent="1">
          <mxGeometry x="320" y="840" width="60" height="30" as="geometry" />
        </mxCell>
        <mxCell id="QIQ5kJItUbip3SlNVDkh-121" value="grade" style="ellipse;whiteSpace=wrap;html=1;aspect=fixed;fontFamily=Helvetica;fontSize=11;fontColor=default;labelBackgroundColor=default;" vertex="1" parent="1">
          <mxGeometry x="730.0000000000005" y="815" width="80" height="80" as="geometry" />
        </mxCell>
        <mxCell id="QIQ5kJItUbip3SlNVDkh-124" value="check_time" style="ellipse;whiteSpace=wrap;html=1;fontSize=11;labelBackgroundColor=default;" vertex="1" parent="1">
          <mxGeometry x="60.000000000000455" y="700" width="80" height="80" as="geometry" />
        </mxCell>
        <mxCell id="QIQ5kJItUbip3SlNVDkh-128" style="edgeStyle=none;shape=connector;rounded=0;orthogonalLoop=1;jettySize=auto;html=1;entryX=0;entryY=0.5;entryDx=0;entryDy=0;strokeColor=default;align=center;verticalAlign=middle;fontFamily=Helvetica;fontSize=11;fontColor=default;labelBackgroundColor=default;endArrow=classic;" edge="1" parent="1" source="QIQ5kJItUbip3SlNVDkh-127" target="Tflg92C3cAOVluI08kxh-13">
          <mxGeometry relative="1" as="geometry" />
        </mxCell>
        <mxCell id="QIQ5kJItUbip3SlNVDkh-132" style="edgeStyle=none;shape=connector;rounded=0;orthogonalLoop=1;jettySize=auto;html=1;strokeColor=default;align=center;verticalAlign=middle;fontFamily=Helvetica;fontSize=11;fontColor=default;labelBackgroundColor=default;endArrow=classic;" edge="1" parent="1" source="QIQ5kJItUbip3SlNVDkh-127" target="QIQ5kJItUbip3SlNVDkh-133">
          <mxGeometry relative="1" as="geometry">
            <mxPoint x="-155" y="380" as="targetPoint" />
          </mxGeometry>
        </mxCell>
        <mxCell id="QIQ5kJItUbip3SlNVDkh-134" style="edgeStyle=none;shape=connector;rounded=0;orthogonalLoop=1;jettySize=auto;html=1;strokeColor=default;align=center;verticalAlign=middle;fontFamily=Helvetica;fontSize=11;fontColor=default;labelBackgroundColor=default;endArrow=classic;" edge="1" parent="1" source="QIQ5kJItUbip3SlNVDkh-127" target="QIQ5kJItUbip3SlNVDkh-135">
          <mxGeometry relative="1" as="geometry">
            <mxPoint x="-360" y="740" as="targetPoint" />
          </mxGeometry>
        </mxCell>
        <mxCell id="QIQ5kJItUbip3SlNVDkh-136" style="edgeStyle=none;shape=connector;rounded=0;orthogonalLoop=1;jettySize=auto;html=1;strokeColor=default;align=center;verticalAlign=middle;fontFamily=Helvetica;fontSize=11;fontColor=default;labelBackgroundColor=default;endArrow=classic;" edge="1" parent="1" source="QIQ5kJItUbip3SlNVDkh-127" target="QIQ5kJItUbip3SlNVDkh-137">
          <mxGeometry relative="1" as="geometry">
            <mxPoint x="-360" y="500" as="targetPoint" />
          </mxGeometry>
        </mxCell>
        <mxCell id="QIQ5kJItUbip3SlNVDkh-180" style="edgeStyle=none;shape=connector;rounded=0;orthogonalLoop=1;jettySize=auto;html=1;entryX=1;entryY=0;entryDx=0;entryDy=0;strokeColor=default;align=center;verticalAlign=middle;fontFamily=Helvetica;fontSize=11;fontColor=default;labelBackgroundColor=default;endArrow=classic;" edge="1" parent="1" source="QIQ5kJItUbip3SlNVDkh-127" target="QIQ5kJItUbip3SlNVDkh-168">
          <mxGeometry relative="1" as="geometry" />
        </mxCell>
        <mxCell id="QIQ5kJItUbip3SlNVDkh-127" value="&lt;span style=&quot;color: rgb(77, 81, 86); font-family: Arial, sans-serif; font-size: 14px; text-align: left;&quot;&gt;&amp;nbsp;&lt;/span&gt;&lt;span style=&quot;color: rgb(77, 81, 86); font-family: Arial, sans-serif; text-align: left;&quot;&gt;&lt;font style=&quot;font-size: 35px;&quot;&gt;indiscipline&lt;/font&gt;&lt;/span&gt;" style="rhombus;whiteSpace=wrap;html=1;fontFamily=Helvetica;fontSize=11;fontColor=default;labelBackgroundColor=default;" vertex="1" parent="1">
          <mxGeometry x="-380" y="520" width="450" height="180" as="geometry" />
        </mxCell>
        <mxCell id="QIQ5kJItUbip3SlNVDkh-126" style="edgeStyle=none;shape=connector;rounded=0;orthogonalLoop=1;jettySize=auto;html=1;strokeColor=default;align=center;verticalAlign=middle;fontFamily=Helvetica;fontSize=11;fontColor=default;labelBackgroundColor=default;endArrow=classic;" edge="1" parent="1" source="QIQ5kJItUbip3SlNVDkh-130" target="QIQ5kJItUbip3SlNVDkh-127">
          <mxGeometry relative="1" as="geometry">
            <mxPoint x="-70" y="640" as="targetPoint" />
          </mxGeometry>
        </mxCell>
        <mxCell id="QIQ5kJItUbip3SlNVDkh-129" value="&lt;font style=&quot;font-size: 35px;&quot;&gt;n&lt;/font&gt;" style="text;html=1;align=center;verticalAlign=middle;whiteSpace=wrap;rounded=0;fontFamily=Helvetica;fontSize=11;fontColor=default;labelBackgroundColor=default;" vertex="1" parent="1">
          <mxGeometry x="219.34" y="540" width="60" height="30" as="geometry" />
        </mxCell>
        <mxCell id="QIQ5kJItUbip3SlNVDkh-131" value="" style="edgeStyle=none;shape=connector;rounded=0;orthogonalLoop=1;jettySize=auto;html=1;strokeColor=default;align=center;verticalAlign=middle;fontFamily=Helvetica;fontSize=11;fontColor=default;labelBackgroundColor=default;endArrow=classic;" edge="1" parent="1" source="Tflg92C3cAOVluI08kxh-3" target="QIQ5kJItUbip3SlNVDkh-130">
          <mxGeometry relative="1" as="geometry">
            <mxPoint x="-117" y="685" as="targetPoint" />
            <mxPoint x="60" y="1031" as="sourcePoint" />
          </mxGeometry>
        </mxCell>
        <mxCell id="QIQ5kJItUbip3SlNVDkh-130" value="&lt;font style=&quot;font-size: 35px;&quot;&gt;n&lt;/font&gt;" style="text;html=1;align=center;verticalAlign=middle;whiteSpace=wrap;rounded=0;fontFamily=Helvetica;fontSize=11;fontColor=default;labelBackgroundColor=default;" vertex="1" parent="1">
          <mxGeometry x="-100" y="780" width="60" height="30" as="geometry" />
        </mxCell>
        <mxCell id="QIQ5kJItUbip3SlNVDkh-133" value="grade" style="ellipse;whiteSpace=wrap;html=1;aspect=fixed;fontFamily=Helvetica;fontSize=11;fontColor=default;labelBackgroundColor=default;" vertex="1" parent="1">
          <mxGeometry x="-195" y="340" width="80" height="80" as="geometry" />
        </mxCell>
        <mxCell id="QIQ5kJItUbip3SlNVDkh-135" value="state" style="ellipse;whiteSpace=wrap;html=1;aspect=fixed;fontFamily=Helvetica;fontSize=11;fontColor=default;labelBackgroundColor=default;" vertex="1" parent="1">
          <mxGeometry x="-400" y="700" width="80" height="80" as="geometry" />
        </mxCell>
        <mxCell id="QIQ5kJItUbip3SlNVDkh-137" value="begin_time" style="ellipse;whiteSpace=wrap;html=1;aspect=fixed;fontFamily=Helvetica;fontSize=11;fontColor=default;labelBackgroundColor=default;" vertex="1" parent="1">
          <mxGeometry x="-400" y="460" width="80" height="80" as="geometry" />
        </mxCell>
        <mxCell id="QIQ5kJItUbip3SlNVDkh-140" style="edgeStyle=none;shape=connector;rounded=0;orthogonalLoop=1;jettySize=auto;html=1;entryX=1;entryY=0.75;entryDx=0;entryDy=0;strokeColor=default;align=center;verticalAlign=middle;fontFamily=Helvetica;fontSize=11;fontColor=default;labelBackgroundColor=default;endArrow=classic;" edge="1" parent="1" source="QIQ5kJItUbip3SlNVDkh-65" target="Tflg92C3cAOVluI08kxh-2">
          <mxGeometry relative="1" as="geometry" />
        </mxCell>
        <mxCell id="QIQ5kJItUbip3SlNVDkh-141" value="Text" style="edgeLabel;html=1;align=center;verticalAlign=middle;resizable=0;points=[];fontFamily=Helvetica;fontSize=11;fontColor=default;labelBackgroundColor=default;" vertex="1" connectable="0" parent="QIQ5kJItUbip3SlNVDkh-140">
          <mxGeometry x="-0.2313" y="7" relative="1" as="geometry">
            <mxPoint x="33" y="-413" as="offset" />
          </mxGeometry>
        </mxCell>
        <mxCell id="QIQ5kJItUbip3SlNVDkh-142" value="&lt;font style=&quot;font-size: 35px;&quot;&gt;n,1&lt;/font&gt;" style="text;html=1;align=center;verticalAlign=middle;whiteSpace=wrap;rounded=0;fontFamily=Helvetica;fontSize=11;fontColor=default;labelBackgroundColor=default;" vertex="1" parent="1">
          <mxGeometry x="1594" y="815" width="60" height="30" as="geometry" />
        </mxCell>
        <mxCell id="QIQ5kJItUbip3SlNVDkh-148" style="edgeStyle=none;shape=connector;rounded=0;orthogonalLoop=1;jettySize=auto;html=1;entryX=0;entryY=0.5;entryDx=0;entryDy=0;strokeColor=default;align=center;verticalAlign=middle;fontFamily=Helvetica;fontSize=11;fontColor=default;labelBackgroundColor=default;endArrow=classic;" edge="1" parent="1" source="QIQ5kJItUbip3SlNVDkh-147" target="Tflg92C3cAOVluI08kxh-4">
          <mxGeometry relative="1" as="geometry" />
        </mxCell>
        <mxCell id="QIQ5kJItUbip3SlNVDkh-149" style="edgeStyle=none;shape=connector;rounded=0;orthogonalLoop=1;jettySize=auto;html=1;strokeColor=default;align=center;verticalAlign=middle;fontFamily=Helvetica;fontSize=11;fontColor=default;labelBackgroundColor=default;endArrow=classic;" edge="1" parent="1" source="QIQ5kJItUbip3SlNVDkh-147">
          <mxGeometry relative="1" as="geometry">
            <mxPoint x="1140" y="1015" as="targetPoint" />
          </mxGeometry>
        </mxCell>
        <mxCell id="QIQ5kJItUbip3SlNVDkh-151" style="edgeStyle=none;shape=connector;rounded=0;orthogonalLoop=1;jettySize=auto;html=1;strokeColor=default;align=center;verticalAlign=middle;fontFamily=Helvetica;fontSize=11;fontColor=default;labelBackgroundColor=default;endArrow=classic;" edge="1" parent="1" source="QIQ5kJItUbip3SlNVDkh-147" target="QIQ5kJItUbip3SlNVDkh-152">
          <mxGeometry relative="1" as="geometry">
            <mxPoint x="870" y="1150" as="targetPoint" />
          </mxGeometry>
        </mxCell>
        <mxCell id="QIQ5kJItUbip3SlNVDkh-147" value="&lt;font style=&quot;font-size: 35px;&quot;&gt;repair&lt;/font&gt;" style="rhombus;whiteSpace=wrap;html=1;fontFamily=Helvetica;fontSize=11;fontColor=default;labelBackgroundColor=default;" vertex="1" parent="1">
          <mxGeometry x="790" y="930" width="160" height="170" as="geometry" />
        </mxCell>
        <mxCell id="QIQ5kJItUbip3SlNVDkh-145" style="edgeStyle=none;shape=connector;rounded=0;orthogonalLoop=1;jettySize=auto;html=1;exitX=0;exitY=1;exitDx=0;exitDy=0;strokeColor=default;align=center;verticalAlign=middle;fontFamily=Helvetica;fontSize=11;fontColor=default;labelBackgroundColor=default;endArrow=classic;entryX=1;entryY=0.5;entryDx=0;entryDy=0;" edge="1" parent="1" source="Tflg92C3cAOVluI08kxh-2" target="QIQ5kJItUbip3SlNVDkh-147">
          <mxGeometry relative="1" as="geometry">
            <mxPoint x="950" y="970" as="targetPoint" />
            <Array as="points">
              <mxPoint x="900" y="960" />
            </Array>
          </mxGeometry>
        </mxCell>
        <mxCell id="QIQ5kJItUbip3SlNVDkh-150" value="reason" style="ellipse;whiteSpace=wrap;html=1;aspect=fixed;fontFamily=Helvetica;fontSize=11;fontColor=default;labelBackgroundColor=default;" vertex="1" parent="1">
          <mxGeometry x="1140" y="980" width="80" height="80" as="geometry" />
        </mxCell>
        <mxCell id="QIQ5kJItUbip3SlNVDkh-152" value="state" style="ellipse;whiteSpace=wrap;html=1;aspect=fixed;fontFamily=Helvetica;fontSize=11;fontColor=default;labelBackgroundColor=default;" vertex="1" parent="1">
          <mxGeometry x="827" y="1130" width="80" height="80" as="geometry" />
        </mxCell>
        <mxCell id="QIQ5kJItUbip3SlNVDkh-153" value="&lt;font style=&quot;font-size: 35px;&quot;&gt;leader&lt;/font&gt;" style="rounded=0;whiteSpace=wrap;html=1;fontFamily=Helvetica;fontSize=11;fontColor=default;labelBackgroundColor=default;" vertex="1" parent="1">
          <mxGeometry x="-220" y="1430" width="120" height="60" as="geometry" />
        </mxCell>
        <mxCell id="QIQ5kJItUbip3SlNVDkh-157" value="&lt;font style=&quot;font-size: 35px;&quot;&gt;student&lt;/font&gt;" style="rounded=0;whiteSpace=wrap;html=1;fontFamily=Helvetica;fontSize=11;fontColor=default;labelBackgroundColor=default;" vertex="1" parent="1">
          <mxGeometry x="340" y="1270" width="120" height="60" as="geometry" />
        </mxCell>
        <mxCell id="QIQ5kJItUbip3SlNVDkh-160" style="edgeStyle=none;shape=connector;rounded=0;orthogonalLoop=1;jettySize=auto;html=1;entryX=1;entryY=0;entryDx=0;entryDy=0;strokeColor=default;align=center;verticalAlign=middle;fontFamily=Helvetica;fontSize=11;fontColor=default;labelBackgroundColor=default;endArrow=classic;" edge="1" parent="1" source="QIQ5kJItUbip3SlNVDkh-159" target="QIQ5kJItUbip3SlNVDkh-153">
          <mxGeometry relative="1" as="geometry" />
        </mxCell>
        <mxCell id="QIQ5kJItUbip3SlNVDkh-161" style="edgeStyle=none;shape=connector;rounded=0;orthogonalLoop=1;jettySize=auto;html=1;entryX=0;entryY=0.5;entryDx=0;entryDy=0;strokeColor=default;align=center;verticalAlign=middle;fontFamily=Helvetica;fontSize=11;fontColor=default;labelBackgroundColor=default;endArrow=classic;" edge="1" parent="1" source="QIQ5kJItUbip3SlNVDkh-159" target="QIQ5kJItUbip3SlNVDkh-157">
          <mxGeometry relative="1" as="geometry" />
        </mxCell>
        <mxCell id="QIQ5kJItUbip3SlNVDkh-162" value="" style="edgeStyle=none;shape=connector;rounded=0;orthogonalLoop=1;jettySize=auto;html=1;strokeColor=default;align=center;verticalAlign=middle;fontFamily=Helvetica;fontSize=11;fontColor=default;labelBackgroundColor=default;endArrow=classic;" edge="1" parent="1" source="QIQ5kJItUbip3SlNVDkh-159" target="QIQ5kJItUbip3SlNVDkh-165">
          <mxGeometry relative="1" as="geometry">
            <mxPoint x="240" y="1450" as="targetPoint" />
          </mxGeometry>
        </mxCell>
        <mxCell id="QIQ5kJItUbip3SlNVDkh-163" style="edgeStyle=none;shape=connector;rounded=0;orthogonalLoop=1;jettySize=auto;html=1;strokeColor=default;align=center;verticalAlign=middle;fontFamily=Helvetica;fontSize=11;fontColor=default;labelBackgroundColor=default;endArrow=classic;" edge="1" parent="1" source="QIQ5kJItUbip3SlNVDkh-159" target="QIQ5kJItUbip3SlNVDkh-164">
          <mxGeometry relative="1" as="geometry">
            <mxPoint x="-120" y="1270" as="targetPoint" />
          </mxGeometry>
        </mxCell>
        <mxCell id="QIQ5kJItUbip3SlNVDkh-182" style="edgeStyle=none;shape=connector;rounded=0;orthogonalLoop=1;jettySize=auto;html=1;strokeColor=default;align=center;verticalAlign=middle;fontFamily=Helvetica;fontSize=11;fontColor=default;labelBackgroundColor=default;endArrow=classic;" edge="1" parent="1" source="QIQ5kJItUbip3SlNVDkh-159" target="QIQ5kJItUbip3SlNVDkh-183">
          <mxGeometry relative="1" as="geometry">
            <mxPoint x="50" y="1450" as="targetPoint" />
          </mxGeometry>
        </mxCell>
        <mxCell id="QIQ5kJItUbip3SlNVDkh-159" value="&lt;font style=&quot;font-size: 35px;&quot;&gt;adjust_dom&lt;/font&gt;" style="rhombus;whiteSpace=wrap;html=1;fontFamily=Helvetica;fontSize=11;fontColor=default;labelBackgroundColor=default;" vertex="1" parent="1">
          <mxGeometry x="-90" y="1290" width="310" height="100" as="geometry" />
        </mxCell>
        <mxCell id="QIQ5kJItUbip3SlNVDkh-158" style="edgeStyle=none;shape=connector;rounded=0;orthogonalLoop=1;jettySize=auto;html=1;strokeColor=default;align=center;verticalAlign=middle;fontFamily=Helvetica;fontSize=11;fontColor=default;labelBackgroundColor=default;endArrow=classic;" edge="1" parent="1" source="Tflg92C3cAOVluI08kxh-3" target="QIQ5kJItUbip3SlNVDkh-159">
          <mxGeometry relative="1" as="geometry">
            <mxPoint x="85" y="1280" as="targetPoint" />
          </mxGeometry>
        </mxCell>
        <mxCell id="QIQ5kJItUbip3SlNVDkh-164" value="in_room" style="ellipse;whiteSpace=wrap;html=1;aspect=fixed;fontFamily=Helvetica;fontSize=11;fontColor=default;labelBackgroundColor=default;" vertex="1" parent="1">
          <mxGeometry x="-160" y="1230" width="80" height="80" as="geometry" />
        </mxCell>
        <mxCell id="QIQ5kJItUbip3SlNVDkh-165" value="out_room" style="ellipse;whiteSpace=wrap;html=1;aspect=fixed;fontFamily=Helvetica;fontSize=11;fontColor=default;labelBackgroundColor=default;" vertex="1" parent="1">
          <mxGeometry x="200" y="1410" width="80" height="80" as="geometry" />
        </mxCell>
        <mxCell id="QIQ5kJItUbip3SlNVDkh-169" style="edgeStyle=none;shape=connector;rounded=0;orthogonalLoop=1;jettySize=auto;html=1;strokeColor=default;align=center;verticalAlign=middle;fontFamily=Helvetica;fontSize=11;fontColor=default;labelBackgroundColor=default;endArrow=classic;" edge="1" parent="1" source="QIQ5kJItUbip3SlNVDkh-168" target="QIQ5kJItUbip3SlNVDkh-170">
          <mxGeometry relative="1" as="geometry">
            <mxPoint x="-910" y="590" as="targetPoint" />
          </mxGeometry>
        </mxCell>
        <mxCell id="QIQ5kJItUbip3SlNVDkh-172" value="" style="edgeStyle=none;shape=connector;rounded=0;orthogonalLoop=1;jettySize=auto;html=1;strokeColor=default;align=center;verticalAlign=middle;fontFamily=Helvetica;fontSize=11;fontColor=default;labelBackgroundColor=default;endArrow=classic;" edge="1" parent="1" source="QIQ5kJItUbip3SlNVDkh-168">
          <mxGeometry relative="1" as="geometry">
            <mxPoint x="-1195" y="730" as="targetPoint" />
          </mxGeometry>
        </mxCell>
        <mxCell id="QIQ5kJItUbip3SlNVDkh-173" style="edgeStyle=none;shape=connector;rounded=0;orthogonalLoop=1;jettySize=auto;html=1;strokeColor=default;align=center;verticalAlign=middle;fontFamily=Helvetica;fontSize=11;fontColor=default;labelBackgroundColor=default;endArrow=classic;" edge="1" parent="1" source="QIQ5kJItUbip3SlNVDkh-168" target="QIQ5kJItUbip3SlNVDkh-174">
          <mxGeometry relative="1" as="geometry">
            <mxPoint x="-1210" y="860" as="targetPoint" />
          </mxGeometry>
        </mxCell>
        <mxCell id="QIQ5kJItUbip3SlNVDkh-176" value="ID" style="edgeStyle=none;shape=connector;rounded=0;orthogonalLoop=1;jettySize=auto;html=1;strokeColor=default;align=center;verticalAlign=middle;fontFamily=Helvetica;fontSize=11;fontColor=default;labelBackgroundColor=default;endArrow=classic;" edge="1" parent="1" source="QIQ5kJItUbip3SlNVDkh-168" target="QIQ5kJItUbip3SlNVDkh-177">
          <mxGeometry relative="1" as="geometry">
            <mxPoint x="-1010" y="890" as="targetPoint" />
          </mxGeometry>
        </mxCell>
        <mxCell id="QIQ5kJItUbip3SlNVDkh-168" value="&lt;font style=&quot;font-size: 35px;&quot;&gt;rating_table&lt;/font&gt;" style="rounded=0;whiteSpace=wrap;html=1;fontFamily=Helvetica;fontSize=11;fontColor=default;labelBackgroundColor=default;" vertex="1" parent="1">
          <mxGeometry x="-1050" y="710" width="290" height="100" as="geometry" />
        </mxCell>
        <mxCell id="QIQ5kJItUbip3SlNVDkh-170" value="room" style="ellipse;whiteSpace=wrap;html=1;aspect=fixed;fontFamily=Helvetica;fontSize=11;fontColor=default;labelBackgroundColor=default;" vertex="1" parent="1">
          <mxGeometry x="-950" y="550" width="80" height="80" as="geometry" />
        </mxCell>
        <mxCell id="QIQ5kJItUbip3SlNVDkh-174" value="grade" style="ellipse;whiteSpace=wrap;html=1;aspect=fixed;fontFamily=Helvetica;fontSize=11;fontColor=default;labelBackgroundColor=default;" vertex="1" parent="1">
          <mxGeometry x="-1250" y="820" width="80" height="80" as="geometry" />
        </mxCell>
        <mxCell id="QIQ5kJItUbip3SlNVDkh-175" value="time" style="ellipse;whiteSpace=wrap;html=1;aspect=fixed;fontFamily=Helvetica;fontSize=11;fontColor=default;labelBackgroundColor=default;" vertex="1" parent="1">
          <mxGeometry x="-1270" y="680" width="80" height="80" as="geometry" />
        </mxCell>
        <mxCell id="QIQ5kJItUbip3SlNVDkh-177" value="ID" style="ellipse;whiteSpace=wrap;html=1;aspect=fixed;fontFamily=Helvetica;fontSize=11;fontColor=default;labelBackgroundColor=default;" vertex="1" parent="1">
          <mxGeometry x="-840" y="870" width="80" height="80" as="geometry" />
        </mxCell>
        <mxCell id="QIQ5kJItUbip3SlNVDkh-183" value="state" style="ellipse;whiteSpace=wrap;html=1;aspect=fixed;fontFamily=Helvetica;fontSize=11;fontColor=default;labelBackgroundColor=default;" vertex="1" parent="1">
          <mxGeometry x="10" y="1410" width="80" height="80" as="geometry" />
        </mxCell>
      </root>
    </mxGraphModel>
  </diagram>
</mxfile>
